{
    "asset" : {
        "generator" : "Khronos glTF Blender I/O v1.3.48",
        "version" : "2.0"
    },
    "scene" : 0,
    "scenes" : [
        {
            "name" : "Scene",
            "nodes" : [
                19,
                20,
                21
            ]
        }
    ],
    "nodes" : [
        {
            "name" : "Cube.001",
            "rotation" : [
                -0.7071068286895752,
                0,
                0,
                0.7071067094802856
            ],
            "scale" : [
                58.9498405456543,
                13.398225784301758,
                0.5283052921295166
            ],
            "translation" : [
                130.01657104492188,
                183.52833557128906,
                5.373336315155029
            ]
        },
        {
            "name" : "Cylinder",
            "rotation" : [
                -0.7071068286895752,
                0,
                0,
                0.7071067094802856
            ],
            "scale" : [
                100,
                100,
                100
            ],
            "translation" : [
                212.76028442382812,
                199.96205139160156,
                0
            ]
        },
        {
            "name" : "Cylinder.001",
            "rotation" : [
                -0.7071068286895752,
                0,
                0,
                0.7071067094802856
            ],
            "scale" : [
                30.406129837036133,
                30.406129837036133,
                30.406129837036133
            ],
            "translation" : [
                -2.6910901069641113,
                383.4571533203125,
                -1.061248779296875
            ]
        },
        {
            "name" : "Cylinder.002",
            "scale" : [
                8.02578067779541,
                8.02578067779541,
                34.90999221801758
            ],
            "translation" : [
                1.3902604579925537,
                225.72055053710938,
                95.13870239257812
            ]
        },
        {
            "name" : "Cylinder.003",
            "rotation" : [
                1,
                0,
                0,
                -7.549790126404332e-08
            ],
            "scale" : [
                8.332414627075195,
                8.332414627075195,
                8.332414627075195
            ],
            "translation" : [
                0,
                220.9961395263672,
                -70.6195297241211
            ]
        },
        {
            "mesh" : 0,
            "name" : "Icosphere_White_0"
        },
        {
            "children" : [
                5
            ],
            "name" : "Icosphere",
            "rotation" : [
                -0.7071068286895752,
                0,
                0,
                0.7071067094802856
            ],
            "scale" : [
                100,
                100,
                100
            ]
        },
        {
            "name" : "Icosphere.001",
            "rotation" : [
                -0.7071068286895752,
                0,
                0,
                0.7071067094802856
            ],
            "scale" : [
                74.02263641357422,
                74.02263641357422,
                74.02263641357422
            ],
            "translation" : [
                0,
                137.1849822998047,
                0
            ]
        },
        {
            "name" : "Icosphere.002",
            "rotation" : [
                -0.7071068286895752,
                0,
                0,
                0.7071067094802856
            ],
            "scale" : [
                56.1831169128418,
                56.1831169128418,
                56.1831169128418
            ],
            "translation" : [
                0,
                245.97044372558594,
                0
            ]
        },
        {
            "name" : "Icosphere.003",
            "rotation" : [
                -0.7071068286895752,
                0,
                0,
                0.7071067094802856
            ],
            "scale" : [
                11.238667488098145,
                11.238667488098145,
                11.238667488098145
            ],
            "translation" : [
                58.65734100341797,
                193.792724609375,
                0
            ]
        },
        {
            "name" : "Icosphere.004",
            "rotation" : [
                -0.7071068286895752,
                0,
                0,
                0.7071067094802856
            ],
            "scale" : [
                11.238667488098145,
                11.238667488098145,
                11.238667488098145
            ],
            "translation" : [
                62.265525817871094,
                216.18032836914062,
                0
            ]
        },
        {
            "name" : "Icosphere.005",
            "rotation" : [
                -0.7071068286895752,
                0,
                0,
                0.7071067094802856
            ],
            "scale" : [
                11.238667488098145,
                11.238667488098145,
                11.238667488098145
            ],
            "translation" : [
                56.66862869262695,
                236.46910095214844,
                0
            ]
        },
        {
            "name" : "Icosphere.006",
            "rotation" : [
                -0.7071068286895752,
                0,
                0,
                0.7071067094802856
            ],
            "scale" : [
                11.238667488098145,
                11.238667488098145,
                11.238667488098145
            ],
            "translation" : [
                41.607521057128906,
                324.1615905761719,
                16.419109344482422
            ]
        },
        {
            "name" : "Icosphere.007",
            "rotation" : [
                -0.7071068286895752,
                0,
                0,
                0.7071067094802856
            ],
            "scale" : [
                11.238667488098145,
                11.238667488098145,
                11.238667488098145
            ],
            "translation" : [
                41.607521057128906,
                324.1615905761719,
                -18.07318878173828
            ]
        },
        {
            "name" : "Icosphere.008",
            "rotation" : [
                -0.7071068286895752,
                0,
                0,
                0.7071067094802856
            ],
            "scale" : [
                87.44585418701172,
                225.38368225097656,
                33.104522705078125
            ],
            "translation" : [
                -81.43502044677734,
                298.03753662109375,
                0
            ]
        },
        {
            "name" : "Torus",
            "rotation" : [
                -0.7071068286895752,
                0,
                0,
                0.7071067094802856
            ],
            "scale" : [
                47.02031707763672,
                47.02031707763672,
                47.02031707763672
            ],
            "translation" : [
                0,
                262.26544189453125,
                0
            ]
        },
        {
            "children" : [
                0,
                1,
                2,
                3,
                4,
                6,
                7,
                8,
                9,
                10,
                11,
                12,
                13,
                14,
                15
            ],
            "name" : "RootNode"
        },
        {
            "children" : [
                16
            ],
            "name" : "b4d0d993b7b240ea9449daa07c4a681e.fbx",
            "rotation" : [
                0.7071068286895752,
                0,
                0,
                0.7071068286895752
            ]
        },
        {
            "children" : [
                17
            ],
            "name" : "RootNode (model correction matrix)"
        },
        {
            "children" : [
                18
            ],
            "name" : "RootNode (gltf orientation matrix)",
            "rotation" : [
                -0.7071068286895752,
                0,
                0,
                0.7071068286895752
            ]
        },
        {
            "name" : "Light",
            "rotation" : [
                0.16907575726509094,
                0.7558803558349609,
                -0.27217137813568115,
                0.570947527885437
            ],
            "translation" : [
                4.076245307922363,
                5.903861999511719,
                -1.0054539442062378
            ]
        },
        {
            "name" : "Camera",
            "rotation" : [
                0.483536034822464,
                0.33687159419059753,
                -0.20870360732078552,
                0.7804827094078064
            ],
            "translation" : [
                7.358891487121582,
                4.958309173583984,
                6.925790786743164
            ]
        }
    ],
    "materials" : [
        {
            "doubleSided" : true,
            "emissiveFactor" : [
                0,
                0,
                0
            ],
            "name" : "White",
            "pbrMetallicRoughness" : {
                "baseColorFactor" : [
                    0.800000011920929,
                    0.800000011920929,
                    0.800000011920929,
                    1
                ],
                "metallicFactor" : 0,
                "roughnessFactor" : 0.823941707611084
            }
        }
    ],
    "meshes" : [
        {
            "name" : "Icosphere_White_0",
            "primitives" : [
                {
                    "attributes" : {
                        "POSITION" : 0,
                        "NORMAL" : 1
                    },
                    "indices" : 2,
                    "material" : 0
                }
            ]
        }
    ],
    "accessors" : [
        {
            "bufferView" : 0,
            "componentType" : 5126,
            "count" : 7408,
            "max" : [
                0.9104346036911011,
                0.9134565591812134,
                1.9358309507369995
            ],
            "min" : [
                -0.9097739458084106,
                -0.9199446439743042,
                0.06405752897262573
            ],
            "type" : "VEC3"
        },
        {
            "bufferView" : 1,
            "componentType" : 5126,
            "count" : 7408,
            "type" : "VEC3"
        },
        {
            "bufferView" : 2,
            "componentType" : 5123,
            "count" : 9264,
            "type" : "SCALAR"
        }
    ],
    "bufferViews" : [
        {
            "buffer" : 0,
            "byteLength" : 88896,
            "byteOffset" : 0
        },
        {
            "buffer" : 0,
            "byteLength" : 88896,
            "byteOffset" : 88896
        },
        {
            "buffer" : 0,
            "byteLength" : 18528,
            "byteOffset" : 177792
        }
    ],
    "buffers" : [
        {
            "byteLength" : 196320,
            "uri" : "data:application/octet-stream;base64,"
        }
    ]
}
