{
    "asset" : {
        "generator" : "Khronos glTF Blender I/O v1.3.48",
        "version" : "2.0"
    },
    "scene" : 0,
    "scenes" : [
        {
            "name" : "Scene",
            "nodes" : [
                2
            ]
        }
    ],
    "nodes" : [
        {
            "mesh" : 0,
            "name" : "Cylinder.001_Black_0"
        },
        {
            "mesh" : 1,
            "name" : "Cylinder.001_Red_0"
        },
        {
            "children" : [
                0,
                1
            ],
            "name" : "Cylinder.001",
            "rotation" : [
                -0.7071068286895752,
                0,
                0,
                0.7071067094802856
            ],
            "scale" : [
                30.406129837036133,
                30.406129837036133,
                30.406129837036133
            ],
            "translation" : [
                -2.6910901069641113,
                383.4571533203125,
                -1.061248779296875
            ]
        }
    ],
    "materials" : [
        {
            "doubleSided" : true,
            "emissiveFactor" : [
                0,
                0,
                0
            ],
            "name" : "Black",
            "pbrMetallicRoughness" : {
                "baseColorFactor" : [
                    0.007193469908088446,
                    0.007193469908088446,
                    0.007193469908088446,
                    1
                ],
                "metallicFactor" : 0,
                "roughnessFactor" : 0.823941707611084
            }
        },
        {
            "doubleSided" : true,
            "emissiveFactor" : [
                0,
                0,
                0
            ],
            "name" : "material",
            "pbrMetallicRoughness" : {
                "baseColorTexture" : {
                    "index" : 0,
                    "texCoord" : 0
                },
                "metallicFactor" : 0,
                "roughnessFactor" : 0.823941707611084
            }
        }
    ],
    "meshes" : [
        {
            "name" : "Cylinder.001_Black_0",
            "primitives" : [
                {
                    "attributes" : {
                        "POSITION" : 0,
                        "NORMAL" : 1
                    },
                    "indices" : 2,
                    "material" : 0
                }
            ]
        },
        {
            "name" : "Cylinder.001_Red_0",
            "primitives" : [
                {
                    "attributes" : {
                        "POSITION" : 3,
                        "NORMAL" : 4
                    },
                    "indices" : 5,
                    "material" : 1
                }
            ]
        }
    ],
    "textures" : [
        {
            "source" : 0
        }
    ],
    "images" : [
        {
            "bufferView" : 6,
            "mimeType" : "image/jpeg",
            "name" : "wool"
        }
    ],
    "accessors" : [
        {
            "bufferView" : 0,
            "componentType" : 5126,
            "count" : 314,
            "max" : [
                1.978858470916748,
                2.154952049255371,
                0.9296026229858398
            ],
            "min" : [
                -1.978858470916748,
                -1.7889736890792847,
                -1.8177727460861206
            ],
            "type" : "VEC3"
        },
        {
            "bufferView" : 1,
            "componentType" : 5126,
            "count" : 314,
            "type" : "VEC3"
        },
        {
            "bufferView" : 2,
            "componentType" : 5123,
            "count" : 348,
            "type" : "SCALAR"
        },
        {
            "bufferView" : 3,
            "componentType" : 5126,
            "count" : 68,
            "max" : [
                1,
                1.278882622718811,
                -0.6629210710525513
            ],
            "min" : [
                -1,
                -0.7263821363449097,
                -1.220366358757019
            ],
            "type" : "VEC3"
        },
        {
            "bufferView" : 4,
            "componentType" : 5126,
            "count" : 68,
            "type" : "VEC3"
        },
        {
            "bufferView" : 5,
            "componentType" : 5123,
            "count" : 72,
            "type" : "SCALAR"
        }
    ],
    "bufferViews" : [
        {
            "buffer" : 0,
            "byteLength" : 3768,
            "byteOffset" : 0
        },
        {
            "buffer" : 0,
            "byteLength" : 3768,
            "byteOffset" : 3768
        },
        {
            "buffer" : 0,
            "byteLength" : 696,
            "byteOffset" : 7536
        },
        {
            "buffer" : 0,
            "byteLength" : 816,
            "byteOffset" : 8232
        },
        {
            "buffer" : 0,
            "byteLength" : 816,
            "byteOffset" : 9048
        },
        {
            "buffer" : 0,
            "byteLength" : 144,
            "byteOffset" : 9864
        },
        {
            "buffer" : 0,
            "byteLength" : 445218,
            "byteOffset" : 10008
        }
    ],
    "buffers" : [
        {
            "byteLength" : 455228,
            "uri" : "data:application/octet-stream;base64,"
        }
    ]
}
