{
    "asset" : {
        "generator" : "Khronos glTF Blender I/O v1.3.48",
        "version" : "2.0"
    },
    "scene" : 0,
    "scenes" : [
        {
            "name" : "Scene",
            "nodes" : [
                23,
                24,
                25
            ]
        }
    ],
    "nodes" : [
        {
            "name" : "Cube.001",
            "rotation" : [
                -0.7071068286895752,
                0,
                0,
                0.7071067094802856
            ],
            "scale" : [
                58.9498405456543,
                13.398225784301758,
                0.5283052921295166
            ],
            "translation" : [
                130.01657104492188,
                183.52833557128906,
                5.373336315155029
            ]
        },
        {
            "mesh" : 0,
            "name" : "Cylinder_Orange_0"
        },
        {
            "children" : [
                1
            ],
            "name" : "Cylinder",
            "rotation" : [
                -0.7071068286895752,
                0,
                0,
                0.7071067094802856
            ],
            "scale" : [
                100,
                100,
                100
            ],
            "translation" : [
                212.76028442382812,
                199.96205139160156,
                0
            ]
        },
        {
            "name" : "Cylinder.001",
            "rotation" : [
                -0.7071068286895752,
                0,
                0,
                0.7071067094802856
            ],
            "scale" : [
                30.406129837036133,
                30.406129837036133,
                30.406129837036133
            ],
            "translation" : [
                -2.6910901069641113,
                383.4571533203125,
                -1.061248779296875
            ]
        },
        {
            "name" : "Cylinder.002",
            "scale" : [
                8.02578067779541,
                8.02578067779541,
                34.90999221801758
            ],
            "translation" : [
                1.3902604579925537,
                225.72055053710938,
                95.13870239257812
            ]
        },
        {
            "name" : "Cylinder.003",
            "rotation" : [
                1,
                0,
                0,
                -7.549790126404332e-08
            ],
            "scale" : [
                8.332414627075195,
                8.332414627075195,
                8.332414627075195
            ],
            "translation" : [
                0,
                220.9961395263672,
                -70.6195297241211
            ]
        },
        {
            "name" : "Icosphere",
            "rotation" : [
                -0.7071068286895752,
                0,
                0,
                0.7071067094802856
            ],
            "scale" : [
                100,
                100,
                100
            ]
        },
        {
            "name" : "Icosphere.001",
            "rotation" : [
                -0.7071068286895752,
                0,
                0,
                0.7071067094802856
            ],
            "scale" : [
                74.02263641357422,
                74.02263641357422,
                74.02263641357422
            ],
            "translation" : [
                0,
                137.1849822998047,
                0
            ]
        },
        {
            "mesh" : 1,
            "name" : "Icosphere.002_White_0"
        },
        {
            "children" : [
                8
            ],
            "name" : "Icosphere.002",
            "rotation" : [
                -0.7071068286895752,
                0,
                0,
                0.7071067094802856
            ],
            "scale" : [
                56.1831169128418,
                56.1831169128418,
                56.1831169128418
            ],
            "translation" : [
                0,
                245.97044372558594,
                0
            ]
        },
        {
            "name" : "Icosphere.003",
            "rotation" : [
                -0.7071068286895752,
                0,
                0,
                0.7071067094802856
            ],
            "scale" : [
                11.238667488098145,
                11.238667488098145,
                11.238667488098145
            ],
            "translation" : [
                58.65734100341797,
                193.792724609375,
                0
            ]
        },
        {
            "name" : "Icosphere.004",
            "rotation" : [
                -0.7071068286895752,
                0,
                0,
                0.7071067094802856
            ],
            "scale" : [
                11.238667488098145,
                11.238667488098145,
                11.238667488098145
            ],
            "translation" : [
                62.265525817871094,
                216.18032836914062,
                0
            ]
        },
        {
            "name" : "Icosphere.005",
            "rotation" : [
                -0.7071068286895752,
                0,
                0,
                0.7071067094802856
            ],
            "scale" : [
                11.238667488098145,
                11.238667488098145,
                11.238667488098145
            ],
            "translation" : [
                56.66862869262695,
                236.46910095214844,
                0
            ]
        },
        {
            "mesh" : 2,
            "name" : "Icosphere.006_Black_0"
        },
        {
            "children" : [
                13
            ],
            "name" : "Icosphere.006",
            "rotation" : [
                -0.7071068286895752,
                0,
                0,
                0.7071067094802856
            ],
            "scale" : [
                11.238667488098145,
                11.238667488098145,
                11.238667488098145
            ],
            "translation" : [
                41.607521057128906,
                324.1615905761719,
                16.419109344482422
            ]
        },
        {
            "mesh" : 3,
            "name" : "Icosphere.007_Black_0"
        },
        {
            "children" : [
                15
            ],
            "name" : "Icosphere.007",
            "rotation" : [
                -0.7071068286895752,
                0,
                0,
                0.7071067094802856
            ],
            "scale" : [
                11.238667488098145,
                11.238667488098145,
                11.238667488098145
            ],
            "translation" : [
                41.607521057128906,
                324.1615905761719,
                -18.07318878173828
            ]
        },
        {
            "mesh" : 4,
            "name" : "Icosphere.008_Black_0"
        },
        {
            "children" : [
                17
            ],
            "name" : "Icosphere.008",
            "rotation" : [
                -0.7071068286895752,
                0,
                0,
                0.7071067094802856
            ],
            "scale" : [
                87.44585418701172,
                225.38368225097656,
                33.104522705078125
            ],
            "translation" : [
                -81.43502044677734,
                298.03753662109375,
                0
            ]
        },
        {
            "name" : "Torus",
            "rotation" : [
                -0.7071068286895752,
                0,
                0,
                0.7071067094802856
            ],
            "scale" : [
                47.02031707763672,
                47.02031707763672,
                47.02031707763672
            ],
            "translation" : [
                0,
                262.26544189453125,
                0
            ]
        },
        {
            "children" : [
                0,
                2,
                3,
                4,
                5,
                6,
                7,
                9,
                10,
                11,
                12,
                14,
                16,
                18,
                19
            ],
            "name" : "RootNode"
        },
        {
            "children" : [
                20
            ],
            "name" : "b4d0d993b7b240ea9449daa07c4a681e.fbx",
            "rotation" : [
                0.7071068286895752,
                0,
                0,
                0.7071068286895752
            ]
        },
        {
            "children" : [
                21
            ],
            "name" : "RootNode (model correction matrix)"
        },
        {
            "children" : [
                22
            ],
            "name" : "RootNode (gltf orientation matrix)",
            "rotation" : [
                -0.7071068286895752,
                0,
                0,
                0.7071068286895752
            ]
        },
        {
            "name" : "Light",
            "rotation" : [
                0.16907575726509094,
                0.7558803558349609,
                -0.27217137813568115,
                0.570947527885437
            ],
            "translation" : [
                4.076245307922363,
                5.903861999511719,
                -1.0054539442062378
            ]
        },
        {
            "name" : "Camera",
            "rotation" : [
                0.483536034822464,
                0.33687159419059753,
                -0.20870360732078552,
                0.7804827094078064
            ],
            "translation" : [
                7.358891487121582,
                4.958309173583984,
                6.925790786743164
            ]
        }
    ],
    "materials" : [
        {
            "doubleSided" : true,
            "emissiveFactor" : [
                0,
                0,
                0
            ],
            "name" : "Orange",
            "pbrMetallicRoughness" : {
                "baseColorFactor" : [
                    1,
                    0.1313209980726242,
                    0.0024608599487692118,
                    1
                ],
                "metallicFactor" : 0,
                "roughnessFactor" : 0.823941707611084
            }
        },
        {
            "doubleSided" : true,
            "emissiveFactor" : [
                0,
                0,
                0
            ],
            "name" : "White",
            "pbrMetallicRoughness" : {
                "baseColorFactor" : [
                    0.800000011920929,
                    0.800000011920929,
                    0.800000011920929,
                    1
                ],
                "metallicFactor" : 0,
                "roughnessFactor" : 0.823941707611084
            }
        },
        {
            "doubleSided" : true,
            "emissiveFactor" : [
                0,
                0,
                0
            ],
            "name" : "Black",
            "pbrMetallicRoughness" : {
                "baseColorFactor" : [
                    0.007193469908088446,
                    0.007193469908088446,
                    0.007193469908088446,
                    1
                ],
                "metallicFactor" : 0,
                "roughnessFactor" : 0.823941707611084
            }
        }
    ],
    "meshes" : [
        {
            "name" : "Cylinder_Orange_0",
            "primitives" : [
                {
                    "attributes" : {
                        "POSITION" : 0,
                        "NORMAL" : 1
                    },
                    "indices" : 2,
                    "material" : 0
                }
            ]
        },
        {
            "name" : "Icosphere.002_White_0",
            "primitives" : [
                {
                    "attributes" : {
                        "POSITION" : 3,
                        "NORMAL" : 4
                    },
                    "indices" : 5,
                    "material" : 1
                }
            ]
        },
        {
            "name" : "Icosphere.006_Black_0",
            "primitives" : [
                {
                    "attributes" : {
                        "POSITION" : 6,
                        "NORMAL" : 7
                    },
                    "indices" : 8,
                    "material" : 2
                }
            ]
        },
        {
            "name" : "Icosphere.007_Black_0",
            "primitives" : [
                {
                    "attributes" : {
                        "POSITION" : 9,
                        "NORMAL" : 10
                    },
                    "indices" : 8,
                    "material" : 2
                }
            ]
        },
        {
            "name" : "Icosphere.008_Black_0",
            "primitives" : [
                {
                    "attributes" : {
                        "POSITION" : 11,
                        "NORMAL" : 12
                    },
                    "indices" : 13,
                    "material" : 2
                }
            ]
        }
    ],
    "accessors" : [
        {
            "bufferView" : 0,
            "componentType" : 5126,
            "count" : 338,
            "max" : [
                -0.9934653639793396,
                0.11025531589984894,
                1.1476610898971558
            ],
            "min" : [
                -1.674314260482788,
                -0.11025570333003998,
                0.9271501302719116
            ],
            "type" : "VEC3"
        },
        {
            "bufferView" : 1,
            "componentType" : 5126,
            "count" : 338,
            "type" : "VEC3"
        },
        {
            "bufferView" : 2,
            "componentType" : 5123,
            "count" : 348,
            "type" : "SCALAR"
        },
        {
            "bufferView" : 3,
            "componentType" : 5126,
            "count" : 2346,
            "max" : [
                0.8697097301483154,
                0.8250440359115601,
                1.935942530632019
            ],
            "min" : [
                -0.874626636505127,
                -0.8002835512161255,
                0.06405752897262573
            ],
            "type" : "VEC3"
        },
        {
            "bufferView" : 4,
            "componentType" : 5126,
            "count" : 2346,
            "type" : "VEC3"
        },
        {
            "bufferView" : 5,
            "componentType" : 5123,
            "count" : 2610,
            "type" : "SCALAR"
        },
        {
            "bufferView" : 6,
            "componentType" : 5126,
            "count" : 4080,
            "max" : [
                0.9275349974632263,
                0.934404730796814,
                0.9365278482437134
            ],
            "min" : [
                -0.9275349974632263,
                -0.934404730796814,
                -0.9365278482437134
            ],
            "type" : "VEC3"
        },
        {
            "bufferView" : 7,
            "componentType" : 5126,
            "count" : 4080,
            "type" : "VEC3"
        },
        {
            "bufferView" : 8,
            "componentType" : 5123,
            "count" : 5760,
            "type" : "SCALAR"
        },
        {
            "bufferView" : 9,
            "componentType" : 5126,
            "count" : 4080,
            "max" : [
                0.9275349974632263,
                0.934404730796814,
                0.9365278482437134
            ],
            "min" : [
                -0.9275349974632263,
                -0.934404730796814,
                -0.9365278482437134
            ],
            "type" : "VEC3"
        },
        {
            "bufferView" : 10,
            "componentType" : 5126,
            "count" : 4080,
            "type" : "VEC3"
        },
        {
            "bufferView" : 11,
            "componentType" : 5126,
            "count" : 240,
            "max" : [
                1.6039917469024658,
                0.14133207499980927,
                -0.08945246040821075
            ],
            "min" : [
                1.3190205097198486,
                -0.13839669525623322,
                -0.5230891704559326
            ],
            "type" : "VEC3"
        },
        {
            "bufferView" : 12,
            "componentType" : 5126,
            "count" : 240,
            "type" : "VEC3"
        },
        {
            "bufferView" : 13,
            "componentType" : 5123,
            "count" : 240,
            "type" : "SCALAR"
        }
    ],
    "bufferViews" : [
        {
            "buffer" : 0,
            "byteLength" : 4056,
            "byteOffset" : 0
        },
        {
            "buffer" : 0,
            "byteLength" : 4056,
            "byteOffset" : 4056
        },
        {
            "buffer" : 0,
            "byteLength" : 696,
            "byteOffset" : 8112
        },
        {
            "buffer" : 0,
            "byteLength" : 28152,
            "byteOffset" : 8808
        },
        {
            "buffer" : 0,
            "byteLength" : 28152,
            "byteOffset" : 36960
        },
        {
            "buffer" : 0,
            "byteLength" : 5220,
            "byteOffset" : 65112
        },
        {
            "buffer" : 0,
            "byteLength" : 48960,
            "byteOffset" : 70332
        },
        {
            "buffer" : 0,
            "byteLength" : 48960,
            "byteOffset" : 119292
        },
        {
            "buffer" : 0,
            "byteLength" : 11520,
            "byteOffset" : 168252
        },
        {
            "buffer" : 0,
            "byteLength" : 48960,
            "byteOffset" : 179772
        },
        {
            "buffer" : 0,
            "byteLength" : 48960,
            "byteOffset" : 228732
        },
        {
            "buffer" : 0,
            "byteLength" : 2880,
            "byteOffset" : 277692
        },
        {
            "buffer" : 0,
            "byteLength" : 2880,
            "byteOffset" : 280572
        },
        {
            "buffer" : 0,
            "byteLength" : 480,
            "byteOffset" : 283452
        }
    ],
    "buffers" : [
        {
            "byteLength" : 283932,
            "uri" : "data:application/octet-stream;base64,"
        }
    ]
}
