{
    "asset" : {
        "generator" : "Khronos glTF Blender I/O v1.3.48",
        "version" : "2.0"
    },
    "scene" : 0,
    "scenes" : [
        {
            "name" : "Scene",
            "nodes" : [
                1,
                2
            ]
        }
    ],
    "nodes" : [
        {
            "mesh" : 0,
            "name" : "Cylinder.003_Brown_0",
            "translation" : [
                0,
                -0.45640894770622253,
                -8.32605266571045
            ]
        },
        {
            "children" : [
                0
            ],
            "name" : "Cylinder.003",
            "rotation" : [
                1,
                0,
                0,
                -7.549790126404332e-08
            ],
            "scale" : [
                8.332414627075195,
                8.332414627075195,
                8.332414627075195
            ],
            "translation" : [
                0,
                -3.567563056945801,
                -70.6195297241211
            ]
        },
        {
            "name" : "Cylinder.002",
            "scale" : [
                8.02578067779541,
                8.02578067779541,
                34.90999221801758
            ],
            "translation" : [
                1.3902604579925537,
                1.1568479537963867,
                95.13870239257812
            ]
        }
    ],
    "materials" : [
        {
            "doubleSided" : true,
            "emissiveFactor" : [
                0,
                0,
                0
            ],
            "name" : "Material.001",
            "pbrMetallicRoughness" : {
                "baseColorTexture" : {
                    "index" : 0,
                    "texCoord" : 0
                },
                "metallicFactor" : 0,
                "roughnessFactor" : 0.5
            }
        }
    ],
    "meshes" : [
        {
            "name" : "Cylinder.003_Brown_0",
            "primitives" : [
                {
                    "attributes" : {
                        "POSITION" : 0,
                        "NORMAL" : 1,
                        "TEXCOORD_0" : 2
                    },
                    "indices" : 3,
                    "material" : 0
                }
            ]
        }
    ],
    "textures" : [
        {
            "source" : 0
        }
    ],
    "images" : [
        {
            "bufferView" : 4,
            "mimeType" : "image/jpeg",
            "name" : "wood_texture"
        }
    ],
    "accessors" : [
        {
            "bufferView" : 0,
            "componentType" : 5126,
            "count" : 335,
            "max" : [
                0.9913219213485718,
                1.8938348293304443,
                14.59268856048584
            ],
            "min" : [
                -1.053154468536377,
                -3.400163412094116,
                -1
            ],
            "type" : "VEC3"
        },
        {
            "bufferView" : 1,
            "componentType" : 5126,
            "count" : 335,
            "type" : "VEC3"
        },
        {
            "bufferView" : 2,
            "componentType" : 5126,
            "count" : 335,
            "type" : "VEC2"
        },
        {
            "bufferView" : 3,
            "componentType" : 5123,
            "count" : 336,
            "type" : "SCALAR"
        }
    ],
    "bufferViews" : [
        {
            "buffer" : 0,
            "byteLength" : 4020,
            "byteOffset" : 0
        },
        {
            "buffer" : 0,
            "byteLength" : 4020,
            "byteOffset" : 4020
        },
        {
            "buffer" : 0,
            "byteLength" : 2680,
            "byteOffset" : 8040
        },
        {
            "buffer" : 0,
            "byteLength" : 672,
            "byteOffset" : 10720
        },
        {
            "buffer" : 0,
            "byteLength" : 38401,
            "byteOffset" : 11392
        }
    ],
    "buffers" : [
        {
            "byteLength" : 49796,
            "uri" : "data:application/octet-stream;base64,"
        }
    ]
}
