{
    "asset" : {
        "generator" : "Khronos glTF Blender I/O v1.3.48",
        "version" : "2.0"
    },
    "scene" : 0,
    "scenes" : [
        {
            "name" : "Scene",
            "nodes" : [
                23,
                24,
                25
            ]
        }
    ],
    "nodes" : [
        {
            "mesh" : 0,
            "name" : "Cube_Red_0"
        },
        {
            "children" : [
                0
            ],
            "name" : "Cube.001",
            "rotation" : [
                -0.7071068286895752,
                0,
                0,
                0.7071067094802856
            ],
            "scale" : [
                58.9498405456543,
                13.398225784301758,
                0.5283052921295166
            ],
            "translation" : [
                130.01657104492188,
                183.52833557128906,
                5.373336315155029
            ]
        },
        {
            "name" : "Cylinder",
            "rotation" : [
                -0.7071068286895752,
                0,
                0,
                0.7071067094802856
            ],
            "scale" : [
                100,
                100,
                100
            ],
            "translation" : [
                212.76028442382812,
                199.96205139160156,
                0
            ]
        },
        {
            "name" : "Cylinder.001",
            "rotation" : [
                -0.7071068286895752,
                0,
                0,
                0.7071067094802856
            ],
            "scale" : [
                30.406129837036133,
                30.406129837036133,
                30.406129837036133
            ],
            "translation" : [
                -2.6910901069641113,
                383.4571533203125,
                -1.061248779296875
            ]
        },
        {
            "name" : "Cylinder.003",
            "rotation" : [
                1,
                0,
                0,
                -7.549790126404332e-08
            ],
            "scale" : [
                8.332414627075195,
                8.332414627075195,
                8.332414627075195
            ],
            "translation" : [
                0,
                220.9961395263672,
                -70.6195297241211
            ]
        },
        {
            "name" : "Icosphere",
            "rotation" : [
                -0.7071068286895752,
                0,
                0,
                0.7071067094802856
            ],
            "scale" : [
                100,
                100,
                100
            ]
        },
        {
            "mesh" : 1,
            "name" : "Icosphere.001_White_0"
        },
        {
            "children" : [
                6
            ],
            "name" : "Icosphere.001",
            "rotation" : [
                -0.7071068286895752,
                0,
                0,
                0.7071067094802856
            ],
            "scale" : [
                74.02263641357422,
                74.02263641357422,
                74.02263641357422
            ],
            "translation" : [
                0,
                137.1849822998047,
                0
            ]
        },
        {
            "name" : "Icosphere.002",
            "rotation" : [
                -0.7071068286895752,
                0,
                0,
                0.7071067094802856
            ],
            "scale" : [
                56.1831169128418,
                56.1831169128418,
                56.1831169128418
            ],
            "translation" : [
                0,
                245.97044372558594,
                0
            ]
        },
        {
            "mesh" : 2,
            "name" : "Icosphere.003_Black_0"
        },
        {
            "children" : [
                9
            ],
            "name" : "Icosphere.003",
            "rotation" : [
                -0.7071068286895752,
                0,
                0,
                0.7071067094802856
            ],
            "scale" : [
                11.238667488098145,
                11.238667488098145,
                11.238667488098145
            ],
            "translation" : [
                58.65734100341797,
                193.792724609375,
                0
            ]
        },
        {
            "mesh" : 3,
            "name" : "Icosphere.004_Black_0"
        },
        {
            "children" : [
                11
            ],
            "name" : "Icosphere.004",
            "rotation" : [
                -0.7071068286895752,
                0,
                0,
                0.7071067094802856
            ],
            "scale" : [
                11.238667488098145,
                11.238667488098145,
                11.238667488098145
            ],
            "translation" : [
                62.265525817871094,
                216.18032836914062,
                0
            ]
        },
        {
            "mesh" : 4,
            "name" : "Icosphere.005_Black_0"
        },
        {
            "children" : [
                13
            ],
            "name" : "Icosphere.005",
            "rotation" : [
                -0.7071068286895752,
                0,
                0,
                0.7071067094802856
            ],
            "scale" : [
                11.238667488098145,
                11.238667488098145,
                11.238667488098145
            ],
            "translation" : [
                56.66862869262695,
                236.46910095214844,
                0
            ]
        },
        {
            "name" : "Icosphere.006",
            "rotation" : [
                -0.7071068286895752,
                0,
                0,
                0.7071067094802856
            ],
            "scale" : [
                11.238667488098145,
                11.238667488098145,
                11.238667488098145
            ],
            "translation" : [
                41.607521057128906,
                324.1615905761719,
                16.419109344482422
            ]
        },
        {
            "name" : "Icosphere.007",
            "rotation" : [
                -0.7071068286895752,
                0,
                0,
                0.7071067094802856
            ],
            "scale" : [
                11.238667488098145,
                11.238667488098145,
                11.238667488098145
            ],
            "translation" : [
                41.607521057128906,
                324.1615905761719,
                -18.07318878173828
            ]
        },
        {
            "name" : "Icosphere.008",
            "rotation" : [
                -0.7071068286895752,
                0,
                0,
                0.7071067094802856
            ],
            "scale" : [
                87.44585418701172,
                225.38368225097656,
                33.104522705078125
            ],
            "translation" : [
                -81.43502044677734,
                298.03753662109375,
                0
            ]
        },
        {
            "mesh" : 5,
            "name" : "Torus_Red_0"
        },
        {
            "children" : [
                18
            ],
            "name" : "Torus",
            "rotation" : [
                -0.7071068286895752,
                0,
                0,
                0.7071067094802856
            ],
            "scale" : [
                47.02031707763672,
                47.02031707763672,
                47.02031707763672
            ],
            "translation" : [
                0,
                262.26544189453125,
                0
            ]
        },
        {
            "children" : [
                1,
                2,
                3,
                4,
                5,
                7,
                8,
                10,
                12,
                14,
                15,
                16,
                17,
                19
            ],
            "name" : "RootNode"
        },
        {
            "children" : [
                20
            ],
            "name" : "b4d0d993b7b240ea9449daa07c4a681e.fbx",
            "rotation" : [
                0.7071068286895752,
                0,
                0,
                0.7071068286895752
            ]
        },
        {
            "children" : [
                21
            ],
            "name" : "RootNode (model correction matrix)"
        },
        {
            "children" : [
                22
            ],
            "name" : "RootNode (gltf orientation matrix)",
            "rotation" : [
                -0.7071068286895752,
                0,
                0,
                0.7071068286895752
            ]
        },
        {
            "name" : "Light",
            "rotation" : [
                0.16907575726509094,
                0.7558803558349609,
                -0.27217137813568115,
                0.570947527885437
            ],
            "translation" : [
                4.076245307922363,
                5.903861999511719,
                -1.0054539442062378
            ]
        },
        {
            "name" : "Camera",
            "rotation" : [
                0.483536034822464,
                0.33687159419059753,
                -0.20870360732078552,
                0.7804827094078064
            ],
            "translation" : [
                7.358891487121582,
                4.958309173583984,
                6.925790786743164
            ]
        }
    ],
    "materials" : [
        {
            "doubleSided" : true,
            "emissiveFactor" : [
                0,
                0,
                0
            ],
            "name" : "material",
            "pbrMetallicRoughness" : {
                "baseColorTexture" : {
                    "index" : 0,
                    "texCoord" : 0
                },
                "metallicFactor" : 0,
                "roughnessFactor" : 0.823941707611084
            }
        },
        {
            "doubleSided" : true,
            "emissiveFactor" : [
                0,
                0,
                0
            ],
            "name" : "White",
            "pbrMetallicRoughness" : {
                "baseColorFactor" : [
                    0.800000011920929,
                    0.800000011920929,
                    0.800000011920929,
                    1
                ],
                "metallicFactor" : 0,
                "roughnessFactor" : 0.823941707611084
            }
        },
        {
            "doubleSided" : true,
            "emissiveFactor" : [
                0,
                0,
                0
            ],
            "name" : "Black",
            "pbrMetallicRoughness" : {
                "baseColorFactor" : [
                    0.007193469908088446,
                    0.007193469908088446,
                    0.007193469908088446,
                    1
                ],
                "metallicFactor" : 0,
                "roughnessFactor" : 0.823941707611084
            }
        }
    ],
    "meshes" : [
        {
            "name" : "Cube_Red_0",
            "primitives" : [
                {
                    "attributes" : {
                        "POSITION" : 0,
                        "NORMAL" : 1,
                        "TEXCOORD_0" : 2
                    },
                    "indices" : 3,
                    "material" : 0
                }
            ]
        },
        {
            "name" : "Icosphere.001_White_0",
            "primitives" : [
                {
                    "attributes" : {
                        "POSITION" : 4,
                        "NORMAL" : 5
                    },
                    "indices" : 6,
                    "material" : 1
                }
            ]
        },
        {
            "name" : "Icosphere.003_Black_0",
            "primitives" : [
                {
                    "attributes" : {
                        "POSITION" : 7,
                        "NORMAL" : 8
                    },
                    "indices" : 9,
                    "material" : 2
                }
            ]
        },
        {
            "name" : "Icosphere.004_Black_0",
            "primitives" : [
                {
                    "attributes" : {
                        "POSITION" : 10,
                        "NORMAL" : 11
                    },
                    "indices" : 9,
                    "material" : 2
                }
            ]
        },
        {
            "name" : "Icosphere.005_Black_0",
            "primitives" : [
                {
                    "attributes" : {
                        "POSITION" : 12,
                        "NORMAL" : 13
                    },
                    "indices" : 9,
                    "material" : 2
                }
            ]
        },
        {
            "name" : "Torus_Red_0",
            "primitives" : [
                {
                    "attributes" : {
                        "POSITION" : 14,
                        "NORMAL" : 15,
                        "TEXCOORD_0" : 16
                    },
                    "indices" : 17,
                    "material" : 0
                }
            ]
        }
    ],
    "textures" : [
        {
            "source" : 0
        }
    ],
    "images" : [
        {
            "bufferView" : 4,
            "mimeType" : "image/jpeg",
            "name" : "wool"
        }
    ],
    "accessors" : [
        {
            "bufferView" : 0,
            "componentType" : 5126,
            "count" : 491,
            "max" : [
                -0.8899883031845093,
                0.08620941638946533,
                137.7608642578125
            ],
            "min" : [
                -1.60347580909729,
                -3.2999837398529053,
                -23.01361846923828
            ],
            "type" : "VEC3"
        },
        {
            "bufferView" : 1,
            "componentType" : 5126,
            "count" : 491,
            "type" : "VEC3"
        },
        {
            "bufferView" : 2,
            "componentType" : 5126,
            "count" : 491,
            "type" : "VEC2"
        },
        {
            "bufferView" : 3,
            "componentType" : 5123,
            "count" : 528,
            "type" : "SCALAR"
        },
        {
            "bufferView" : 5,
            "componentType" : 5126,
            "count" : 2842,
            "max" : [
                0.8700585961341858,
                0.934404730796814,
                1.9365278482437134
            ],
            "min" : [
                -0.8735033869743347,
                -0.9000676870346069,
                0.06347215175628662
            ],
            "type" : "VEC3"
        },
        {
            "bufferView" : 6,
            "componentType" : 5126,
            "count" : 2842,
            "type" : "VEC3"
        },
        {
            "bufferView" : 7,
            "componentType" : 5123,
            "count" : 3222,
            "type" : "SCALAR"
        },
        {
            "bufferView" : 8,
            "componentType" : 5126,
            "count" : 240,
            "max" : [
                0.9510578513145447,
                0.9999999403953552,
                1
            ],
            "min" : [
                -0.9510578513145447,
                -0.9999999403953552,
                -1
            ],
            "type" : "VEC3"
        },
        {
            "bufferView" : 9,
            "componentType" : 5126,
            "count" : 240,
            "type" : "VEC3"
        },
        {
            "bufferView" : 10,
            "componentType" : 5123,
            "count" : 240,
            "type" : "SCALAR"
        },
        {
            "bufferView" : 11,
            "componentType" : 5126,
            "count" : 240,
            "max" : [
                0.9510578513145447,
                0.9999999403953552,
                1
            ],
            "min" : [
                -0.9510578513145447,
                -0.9999999403953552,
                -1
            ],
            "type" : "VEC3"
        },
        {
            "bufferView" : 12,
            "componentType" : 5126,
            "count" : 240,
            "type" : "VEC3"
        },
        {
            "bufferView" : 13,
            "componentType" : 5126,
            "count" : 240,
            "max" : [
                0.9510578513145447,
                0.9999999403953552,
                1
            ],
            "min" : [
                -0.9510578513145447,
                -0.9999999403953552,
                -1
            ],
            "type" : "VEC3"
        },
        {
            "bufferView" : 14,
            "componentType" : 5126,
            "count" : 240,
            "type" : "VEC3"
        },
        {
            "bufferView" : 15,
            "componentType" : 5126,
            "count" : 3454,
            "max" : [
                1.2165063619613647,
                1.2165063619613647,
                0.28117606043815613
            ],
            "min" : [
                -1.2165063619613647,
                -1.2165063619613647,
                -0.27048787474632263
            ],
            "type" : "VEC3"
        },
        {
            "bufferView" : 16,
            "componentType" : 5126,
            "count" : 3454,
            "type" : "VEC3"
        },
        {
            "bufferView" : 17,
            "componentType" : 5126,
            "count" : 3454,
            "type" : "VEC2"
        },
        {
            "bufferView" : 18,
            "componentType" : 5123,
            "count" : 3456,
            "type" : "SCALAR"
        }
    ],
    "bufferViews" : [
        {
            "buffer" : 0,
            "byteLength" : 5892,
            "byteOffset" : 0
        },
        {
            "buffer" : 0,
            "byteLength" : 5892,
            "byteOffset" : 5892
        },
        {
            "buffer" : 0,
            "byteLength" : 3928,
            "byteOffset" : 11784
        },
        {
            "buffer" : 0,
            "byteLength" : 1056,
            "byteOffset" : 15712
        },
        {
            "buffer" : 0,
            "byteLength" : 445218,
            "byteOffset" : 16768
        },
        {
            "buffer" : 0,
            "byteLength" : 34104,
            "byteOffset" : 461988
        },
        {
            "buffer" : 0,
            "byteLength" : 34104,
            "byteOffset" : 496092
        },
        {
            "buffer" : 0,
            "byteLength" : 6444,
            "byteOffset" : 530196
        },
        {
            "buffer" : 0,
            "byteLength" : 2880,
            "byteOffset" : 536640
        },
        {
            "buffer" : 0,
            "byteLength" : 2880,
            "byteOffset" : 539520
        },
        {
            "buffer" : 0,
            "byteLength" : 480,
            "byteOffset" : 542400
        },
        {
            "buffer" : 0,
            "byteLength" : 2880,
            "byteOffset" : 542880
        },
        {
            "buffer" : 0,
            "byteLength" : 2880,
            "byteOffset" : 545760
        },
        {
            "buffer" : 0,
            "byteLength" : 2880,
            "byteOffset" : 548640
        },
        {
            "buffer" : 0,
            "byteLength" : 2880,
            "byteOffset" : 551520
        },
        {
            "buffer" : 0,
            "byteLength" : 41448,
            "byteOffset" : 554400
        },
        {
            "buffer" : 0,
            "byteLength" : 41448,
            "byteOffset" : 595848
        },
        {
            "buffer" : 0,
            "byteLength" : 27632,
            "byteOffset" : 637296
        },
        {
            "buffer" : 0,
            "byteLength" : 6912,
            "byteOffset" : 664928
        }
    ],
    "buffers" : [
        {
            "byteLength" : 671840,
            "uri" : "data:application/octet-stream;base64,"
        }
    ]
}
