<?xml version="1.0" encoding="UTF-8" standalone="no"?>
<svg
   xmlns:dc="http://purl.org/dc/elements/1.1/"
   xmlns:cc="http://creativecommons.org/ns#"
   xmlns:rdf="http://www.w3.org/1999/02/22-rdf-syntax-ns#"
   xmlns:svg="http://www.w3.org/2000/svg"
   xmlns="http://www.w3.org/2000/svg"
   xmlns:sodipodi="http://sodipodi.sourceforge.net/DTD/sodipodi-0.dtd"
   xmlns:inkscape="http://www.inkscape.org/namespaces/inkscape"
   sodipodi:docname="score.svg"
   inkscape:version="1.0 (4035a4fb49, 2020-05-01)"
   id="svg8"
   version="1.1"
   viewBox="0 0 55.898762 27.326977"
   height="27.326977mm"
   width="55.898762mm"
   inkscape:export-filename="/home/artur/Desktop/score_board.png"
   inkscape:export-xdpi="186"
   inkscape:export-ydpi="186">
  <defs
     id="defs2" />
  <sodipodi:namedview
     inkscape:window-maximized="1"
     inkscape:window-y="0"
     inkscape:window-x="0"
     inkscape:window-height="1051"
     inkscape:window-width="1920"
     showgrid="false"
     inkscape:document-rotation="0"
     inkscape:current-layer="layer1"
     inkscape:document-units="mm"
     inkscape:cy="47.572639"
     inkscape:cx="-56.369634"
     inkscape:zoom="1.4"
     inkscape:pageshadow="2"
     inkscape:pageopacity="0.0"
     borderopacity="1.0"
     bordercolor="#666666"
     pagecolor="#ffffff"
     id="base" />
  <metadata
     id="metadata5">
    <rdf:RDF>
      <cc:Work
         rdf:about="">
        <dc:format>image/svg+xml</dc:format>
        <dc:type
           rdf:resource="http://purl.org/dc/dcmitype/StillImage" />
        <dc:title />
      </cc:Work>
    </rdf:RDF>
  </metadata>
  <g
     id="layer1"
     inkscape:groupmode="layer"
     inkscape:label="Layer 1"
     transform="translate(-67.282445,-153.12188)">
    <g
       transform="matrix(0.22974565,0,0,0.22974565,57.785915,158.10714)"
       id="g1005">
      <path
         id="path1009"
         d="m 261.52971,97.079924 c -2.97749,-0.149757 -6.87384,-0.647401 -12.30313,-1.571366 -2.98317,-0.507682 -6.78865,-1.09524 -8.45661,-1.305687 -3.51215,-0.443129 -11.47803,-0.492929 -18.2663,-0.114196 -4.77147,0.26621 -23.0627,0.358714 -24.47396,0.123769 -1.2369,-0.205915 -26.11202,-0.191865 -26.85521,0.01516 -0.3638,0.101343 -8.22193,0.210616 -17.4625,0.242824 -9.24057,0.03221 -17.27729,0.152228 -17.85938,0.26671 -0.58208,0.114483 -2.66567,0.639456 -4.63021,1.166604 l -3.57187,0.958453 -22.36814,-0.04773 C 85.169513,96.771542 82.315143,96.712534 76.971988,96.229209 71.892916,95.769771 69.130082,95.695799 57.952834,95.719982 l -13.076872,0.0283 -0.86742,-0.94652 c -1.209863,-1.320189 -1.761794,-3.381899 -1.646097,-6.148915 0.08461,-2.023422 0.157201,-2.274249 0.875023,-3.023367 0.43052,-0.449289 1.241978,-0.954471 1.803241,-1.12263 l 1.020478,-0.305741 -1.65253,-0.598369 c -3.200097,-1.158719 -3.654054,-1.983549 -2.490476,-4.52514 1.388023,-3.031841 2.818039,-4.200958 6.183988,-5.05575 l 1.890448,-0.480084 -1.924953,-0.845955 c -3.219086,-1.414682 -4.202247,-2.798707 -2.371262,-3.338095 0.783324,-0.230756 1.192923,-0.672888 0.623377,-0.672888 -0.129782,0 -0.842335,-0.545177 -1.58345,-1.211503 -1.518057,-1.364864 -2.149332,-2.912502 -2.149332,-5.26931 0,-1.163158 0.113727,-1.466641 0.79375,-2.118145 0.953991,-0.913982 1.015931,-1.784919 0.279226,-3.926189 -1.488027,-4.325025 -1.361477,-12.623549 0.275182,-18.045026 0.819986,-2.716228 0.821941,-2.717797 3.702536,-2.970929 l 2.489931,-0.218803 -1.556313,-0.36789 c -3.096874,-0.732059 -4.027261,-1.949217 -5.096873,-6.667862 -0.604357,-2.666148 -0.663484,-3.38283 -0.541605,-6.56476 0.08849,-2.310225 0.293844,-4.039153 0.581381,-4.894791 0.340056,-1.01192 0.426972,-2.069309 0.369724,-4.497917 -0.150046,-6.3653961 0.146396,-8.4367545 1.365293,-9.5398407 0.520537,-0.4710796 0.519927,-0.4780791 -0.100653,-1.1555966 -1.102212,-1.20333901 -1.710759,-2.2503863 -2.32456,-3.9995692 -0.54133,-1.5426589 -0.601419,-2.2117711 -0.616825,-6.8685352 -0.01603,-4.8444233 0.0201,-5.2401323 0.591796,-6.4822913 0.795697,-1.728857 1.922673,-2.864381 3.593179,-3.620434 1.297924,-0.587427 1.612618,-0.611985 7.571914,-0.590895 3.811094,0.01349 7.958664,0.198793 10.715625,0.478754 5.77686,0.586623 13.408044,0.856224 25.712095,0.90838 7.179117,0.03043 10.61065,0.150496 12.7,0.444354 2.30567,0.324284 5.56655,0.394221 16.75353,0.35932 20.47018,-0.06386 28.87906,-0.430611 38.89375,-1.696327 10.00113,-1.264003 15.34021,-1.392253 50.66771,-1.217089 15.55012,0.0771 18.61898,0.0298 20.70328,-0.319129 2.12326,-0.355447 5.36151,-0.390795 24.47396,-0.267149 17.85899,0.115537 22.32322,0.214344 23.59279,0.522181 3.59024,0.870538 4.79235,2.724944 3.05163,4.707514 l -0.80647,0.918518 0.99639,0.08288 c 0.79194,0.06587 1.1203,0.267353 1.60022,0.981899 1.21227,1.804924 0.47447,3.439034 -2.26293,5.0120178 -0.9699,0.5573327 -2.4183,1.3961126 -3.21866,1.8639552 l -1.45521,0.8506227 1.38596,-0.1700228 c 0.76228,-0.093513 2.12295,-0.1761249 3.02371,-0.183583 2.40223,-0.019889 2.73801,0.4535855 2.98056,4.2027076 0.22544,3.48464712 -0.17594,5.7398462 -1.58546,8.9082189 -2.78905,6.2692946 -2.60606,5.6909576 -2.61038,8.2503936 -0.005,2.797741 0.49677,4.391705 2.41402,7.672917 2.88471,4.936939 3.3632,6.748057 2.67137,10.111414 -1.04036,5.05773 -1.41225,6.571017 -1.66214,6.763679 -0.1472,0.113488 -0.90105,0.173019 -1.67522,0.132292 -1.33561,-0.07027 -1.37632,-0.05376 -0.79613,0.322823 1.47836,0.959549 2.592,2.198714 2.75452,3.064997 0.23807,1.269066 0.008,1.942626 -1.11197,3.250668 -0.78217,0.913797 -0.90313,1.189236 -0.60509,1.377916 0.20487,0.129698 0.51827,0.23764 0.69644,0.239868 0.90397,0.0113 1.04648,1.312474 1.09372,9.986452 0.0575,10.559775 -0.1786,11.939416 -2.79495,16.332044 -1.10583,1.856581 -2.02928,2.936084 -3.06118,3.578505 l -0.73432,0.45715 2.40614,0.328814 c 1.32338,0.180848 2.456,0.466061 2.51694,0.633804 0.22711,0.625157 0.91117,6.131094 0.91117,7.333938 0,0.686562 -0.34821,2.600602 -0.77381,4.253423 -0.42559,1.652823 -0.85512,3.565951 -0.95451,4.251402 l -0.1807,1.246272 -1.49288,0.436128 c -3.64895,1.065996 -9.38685,1.393881 -17.36789,0.992468 z"
         style="fill:#936536;stroke-width:0.264583" />
      <path
         id="path1007"
         d="m 262.47532,96.938332 c -4.27093,-0.196103 -9.21935,-0.814641 -15.3654,-1.920634 -8.09608,-1.456901 -10.9145,-1.552697 -30.76924,-1.045802 -7.14094,0.182308 -13.93561,0.197776 -19.18229,0.04367 -4.46849,-0.131249 -12.64889,-0.158533 -18.17868,-0.06063 -5.52979,0.0979 -17.55511,0.262414 -26.72292,0.365585 l -16.66875,0.187582 -3.04271,0.824026 c -5.56481,1.507067 -4.93639,1.473073 -26.45833,1.431166 -18.956724,-0.03691 -25.113139,-0.213501 -30.559378,-0.87656 -1.419955,-0.172873 -8.07711,-0.301371 -16.490641,-0.318304 L 44.92759,95.540033 44.0378,94.569105 c -1.10347,-1.20409 -1.514815,-2.647934 -1.532475,-5.379072 -0.01721,-2.661737 0.407574,-3.558267 2.052233,-4.331351 0.65927,-0.30989 1.319032,-0.56344 1.466139,-0.56344 0.147106,0 0.267466,-0.119063 0.267466,-0.264584 0,-0.145521 -0.233658,-0.264583 -0.519241,-0.264583 -0.915346,0 -3.342777,-1.042908 -3.962271,-1.702329 -0.550738,-0.586235 -0.57304,-0.721582 -0.272042,-1.650942 1.267396,-3.913198 3.378169,-5.672995 7.888559,-6.576867 1.077061,-0.215839 0.934968,-0.352036 -1.356201,-1.299908 -2.009596,-0.831387 -3.450721,-2.000438 -3.216955,-2.60962 0.08354,-0.217699 0.560361,-0.472448 1.059604,-0.566108 1.111539,-0.208526 1.138466,-0.425074 0.127143,-1.022477 -1.093086,-0.645702 -2.392099,-1.994339 -2.702034,-2.805255 -0.429802,-1.124535 -0.800864,-3.491138 -0.644845,-4.112763 0.08011,-0.319193 0.505781,-0.957186 0.945929,-1.417759 0.979416,-1.024864 0.98713,-1.464173 0.07286,-4.149514 -0.697392,-2.04834 -0.720092,-2.296019 -0.703219,-7.672916 0.01871,-5.963402 0.318672,-8.223221 1.480018,-11.150114 0.681093,-1.716532 0.345056,-1.567338 3.993205,-1.772898 0.986499,-0.05559 1.855339,-0.162769 1.930755,-0.238186 0.07542,-0.07541 -0.73172,-0.348528 -1.793636,-0.606917 -3.375366,-0.821307 -4.341936,-2.361925 -5.381184,-8.577078 -0.540121,-3.230157 -0.421364,-6.025316 0.391212,-9.207859 0.467642,-1.831573 0.534794,-2.811434 0.478668,-6.9845348 C 44.046322,5.0940359 44.078525,4.7200976 44.61818,3.7119166 44.934966,3.1200984 45.381841,2.4801174 45.611235,2.289737 45.982214,1.9818522 45.922501,1.8264653 45.071023,0.88398138 43.137222,-1.2565049 42.473596,-3.5185861 42.21886,-8.8380917 c -0.297497,-6.2124553 0.75311,-8.9863833 4.072303,-10.7521503 1.311795,-0.697856 9.968337,-0.828046 16.401233,-0.246665 8.682022,0.784649 12.566968,0.936461 24.080018,0.940973 9.765649,0.0038 12.190831,0.08397 16.007296,0.528984 5.22359,0.60909 17.29568,0.709334 32.27916,0.268039 11.57135,-0.340801 16.18477,-0.650601 23.94479,-1.607942 3.56527,-0.439839 8.62542,-0.908157 11.2448,-1.040706 2.66222,-0.134717 16.139,-0.170377 30.55937,-0.08086 23.06438,0.143175 26.09115,0.114401 28.575,-0.271653 2.44802,-0.380483 5.43471,-0.41978 25.13542,-0.330713 23.24165,0.105075 23.51353,0.118225 25.72039,1.244084 1.75989,0.897825 2.07492,2.562593 0.73794,3.899572 -0.43656,0.436562 -0.79375,0.841819 -0.79375,0.90057 0,0.05875 0.35339,0.05495 0.78531,-0.0084 1.18262,-0.173571 2.38969,1.121359 2.38969,2.56363 0,1.50502 -0.82394,2.297279 -4.58255,4.4063228 -1.72004,0.9651553 -3.08756,1.794618 -3.03893,1.8432502 0.0486,0.048633 1.36844,-0.044329 2.9329,-0.2065805 2.6982,-0.2798342 2.88168,-0.2672663 3.56809,0.2444144 0.62765,0.4678809 0.75208,0.7989064 0.93827,2.4960812 0.30029,2.7373411 0.0591,6.1889072 -0.55265,7.9097889 -0.28454,0.8003646 -1.11511,2.7648958 -1.84572,4.365625 -2.41662,5.294704 -2.41701,7.578847 -0.002,12.235111 0.7364,1.419855 1.81886,3.50742 2.40546,4.639035 0.93549,1.804646 1.08067,2.326547 1.18147,4.247065 0.0892,1.699602 -0.0142,2.660179 -0.46223,4.292521 -0.31744,1.156615 -0.65856,2.757778 -0.75805,3.558143 l -0.18088,1.455208 -1.98436,0.139539 c -1.47412,0.103661 -1.8483,0.200948 -1.4552,0.378354 2.21043,0.997564 3.69403,2.939431 3.39237,4.440222 -0.0801,0.398629 -0.6083,1.250339 -1.17372,1.892683 -0.56541,0.642348 -1.02803,1.224484 -1.02803,1.293641 0,0.06916 0.36174,0.275574 0.80387,0.458708 0.44212,0.183134 0.90912,0.529648 1.03777,0.770033 0.12865,0.240384 0.27008,4.421007 0.3143,9.290275 0.0696,7.663881 0.0196,9.093134 -0.37251,10.639155 -0.85963,3.389847 -3.5397,7.951819 -5.22947,8.901522 -0.59766,0.335905 -1.03613,0.661263 -0.97438,0.723017 0.0618,0.06175 1.15405,0.280918 2.42732,0.487034 1.27327,0.206116 2.39142,0.451009 2.4848,0.544206 0.2583,0.25782 0.79931,4.782108 0.82184,6.872861 0.013,1.202452 -0.27091,3.104947 -0.80932,5.423959 -0.45611,1.964531 -0.87122,3.814818 -0.92246,4.111749 -0.075,0.434253 -0.53008,0.654463 -2.32643,1.125604 -2.28139,0.598352 -8.01596,1.194054 -10.17251,1.056708 -0.65938,-0.04199 -3.05316,-0.161493 -5.31949,-0.265554 z m 10.99737,-1.269595 c 1.28949,-0.159697 3.06617,-0.471175 3.9482,-0.692168 l 1.60368,-0.401807 0.88399,-3.532807 c 0.82798,-3.308969 0.87368,-3.722632 0.72117,-6.528821 -0.0896,-1.647809 -0.23985,-3.427211 -0.33397,-3.95423 l -0.17114,-0.958209 -2.79485,-0.458648 c -1.53718,-0.252253 -3.51838,-0.420679 -4.40267,-0.374274 -3.19365,0.167584 -40.38885,-0.191939 -41.35956,-0.399777 -0.32638,-0.06988 -4.5531,-0.202917 -9.39271,-0.295635 -4.83961,-0.09272 -8.94812,-0.215046 -9.13002,-0.271836 -0.1819,-0.05679 -0.33073,-0.362238 -0.33073,-0.678767 v -0.575509 l 8.7707,0.19312 c 4.82389,0.106214 9.01866,0.240868 9.32172,0.299233 0.30306,0.05836 5.55382,0.167764 11.66836,0.243112 6.11454,0.07535 15.10594,0.195512 19.98089,0.267031 9.68679,0.142113 10.80948,0.03119 13.06532,-1.290815 1.75929,-1.031015 2.89592,-2.316562 4.10788,-4.646104 1.74464,-3.353411 1.82384,-3.924578 1.90536,-13.739225 0.04,-4.814626 0.0112,-8.815364 -0.0639,-8.89053 -0.0752,-0.07516 -0.60397,-0.296955 -1.17512,-0.492865 -0.6761,-0.231913 -1.16697,-0.618818 -1.40679,-1.108848 -0.36063,-0.736894 -0.33975,-0.777936 0.99744,-1.961068 1.20463,-1.065845 1.36515,-1.329163 1.36052,-2.231739 -0.008,-1.491774 -1.44458,-2.860299 -3.65429,-3.480311 -0.91134,-0.255709 -1.71536,-0.55939 -1.78671,-0.674846 -0.0714,-0.115456 -3.13399,-0.165883 -6.80585,-0.112059 -8.97405,0.131543 -11.06757,-0.08319 -19.50839,-2.000967 -1.9931,-0.45284 -3.77357,-0.606232 -8.59896,-0.740836 -5.85245,-0.16325 -6.08542,-0.190008 -6.08542,-0.698915 0,-0.514207 0.16828,-0.528479 5.95313,-0.504852 5.83321,0.02381 6.03902,0.04357 10.21723,0.98035 6.70828,1.504032 7.89741,1.601325 19.82658,1.622179 l 10.86153,0.019 0.72413,-2.645833 c 1.23174,-4.500563 0.90948,-7.499871 -1.14784,-10.682933 -2.42914,-3.758359 -3.47327,-6.590345 -3.50455,-9.505339 -0.0234,-2.183852 0.52835,-4.123695 2.06345,-7.2543828 1.74576,-3.5602813 2.2395,-5.3941134 2.25694,-8.38250883 0.0167,-2.85081587 -0.23114,-3.77243177 -1.18169,-4.39525537 -0.60646,-0.3973651 -0.91787,-0.3879422 -4.31129,0.1304557 -2.01169,0.3073167 -3.95527,0.5578882 -4.31908,0.5568257 -0.3638,-0.00106 -1.34538,0.2975625 -2.18129,0.6636115 -2.7563,1.2069926 -9.91478,2.5473784 -15.28121,2.8613166 -1.38245,0.0808736 -4.29948,0.21163119 -6.48229,0.29057254 -4.89111,0.17688666 -5.79157,0.24720497 -15.34583,1.19837385 C 222.9291,1.4292959 215.77989,1.9685599 210.0683,2.1575189 c -2.54662,0.084251 -5.61227,0.1872346 -6.81256,0.2288527 -1.6188,0.05613 -2.26156,-0.019775 -2.4891,-0.293942 -0.57225,-0.6895179 0.16935,-0.8814665 3.89412,-1.0079233 11.10606,-0.37705272 17.54687,-0.84191584 31.07212,-2.2426179 5.23231,-0.5418682 7.66233,-0.6999631 14.55209,-0.9467464 8.60619,-0.3082642 14.21053,-1.1748145 18.86978,-2.9176704 1.7199,-0.6433498 3.23679,-1.1697269 3.37087,-1.1697269 0.13408,0 1.02562,-0.5352616 1.98119,-1.1894704 0.95557,-0.6542085 2.87141,-1.8007981 4.25742,-2.5479764 1.38601,-0.7471789 2.58295,-1.5225009 2.65987,-1.7229389 0.0769,-0.200438 0.0596,-0.79199 -0.0384,-1.31456 l -0.17825,-0.950128 -1.76905,0.09222 c -1.63367,0.08517 -1.77517,0.04943 -1.84888,-0.467002 -0.057,-0.399063 0.29908,-0.876459 1.24314,-1.66687 1.55525,-1.302126 1.85192,-1.968142 1.19839,-2.690292 -1.18003,-1.303916 -1.79432,-1.344873 -22.60233,-1.50697 -25.24953,-0.196697 -24.74111,-0.201119 -26.59063,0.231277 -1.31758,0.308036 -6.4685,0.363099 -30.29479,0.323849 -15.99013,-0.02634 -30.1724,0.06325 -32.01458,0.202248 -1.81902,0.137246 -5.74808,0.542395 -8.73126,0.90033 -6.7276,0.80721 -10.26699,1.130866 -14.68437,1.342797 -1.89177,0.09076 -3.97536,0.211967 -4.63021,0.269348 -0.65484,0.05738 -8.21531,0.181262 -16.80104,0.275292 -15.08365,0.165194 -15.73287,0.151911 -19.23937,-0.393639 -3.37269,-0.524731 -4.652548,-0.565008 -18.12396,-0.570348 -12.745611,-0.0051 -15.101721,-0.0709 -19.522088,-0.545604 -6.334864,-0.680299 -17.859235,-0.987291 -19.293476,-0.513949 -2.46368,0.813088 -3.888264,3.003373 -4.06671,6.25253 -0.149348,2.7193499 0.34131,7.8207502 0.915467,9.5181671 1.000176,2.95688249 3.004368,4.7466017 4.960024,4.4292424 0.558525,-0.090636 2.697006,-0.027827 4.752181,0.1395767 2.055174,0.1674032 7.010899,0.3637601 11.012722,0.4363482 4.001823,0.072588 9.121511,0.202691 11.377084,0.2891169 3.082935,0.1181277 4.785876,0.052593 6.859624,-0.2639804 3.540604,-0.5404998 3.513117,-0.5418942 3.411382,0.173024 C 86.543224,3.6144515 83.138862,3.7997082 65.87033,3.4742244 60.124333,3.3659215 54.74572,3.138347 53.531743,2.9521661 51.287576,2.6079905 49.717241,2.6505842 48.919999,3.077255 c -0.257868,0.1380066 -0.810468,0.1825977 -1.228,0.099091 -1.989038,-0.3978077 -2.756948,2.0070262 -2.223924,6.964575 l 0.337378,3.137887 -0.815478,3.281426 c -1.325361,5.333156 -1.03749,10.742239 0.759124,14.263893 0.662034,1.297694 1.237809,1.699176 3.614887,2.520628 1.002083,0.346292 2.35775,0.844243 3.012594,1.106559 1.748197,0.700288 6.56144,0.655148 10.980209,-0.102976 11.923051,-2.045624 21.743329,-2.321343 36.247917,-1.017717 2.536194,0.227946 8.466134,0.408903 20.240624,0.617659 20.37584,0.361254 23.43946,0.25273 28.93796,-1.025089 1.91921,-0.44601 2.38695,-0.481401 2.56455,-0.194037 0.47465,0.767987 -0.56164,1.214414 -4.51501,1.945052 -3.01145,0.556557 -7.81551,0.869458 -12.17083,0.792716 -1.96453,-0.03461 -9.16781,-0.140737 -16.00729,-0.235823 -10.97089,-0.152522 -16.16661,-0.386861 -26.855213,-1.21122 -1.527968,-0.117846 -5.87375,-0.176372 -9.657291,-0.130059 -6.040687,0.07394 -7.556403,0.184076 -12.435417,0.90356 -10.246019,1.51093 -13.021795,1.756601 -15.58751,1.379569 -1.167039,-0.171495 -1.999692,-0.177538 -2.300234,-0.0167 -0.259082,0.138658 -1.695566,0.377762 -3.192186,0.531344 -1.513499,0.155313 -2.812265,0.418912 -2.926486,0.593961 -0.528356,0.809731 -1.317284,4.011938 -1.592872,6.465369 -0.373992,3.329463 -0.0039,7.672652 0.986586,11.577156 0.910674,3.589983 0.88092,4.197284 -0.267941,5.468937 -0.829185,0.917808 -0.916205,1.147636 -0.763485,2.016443 0.435326,2.476518 1.698381,4.03837 4.279023,5.291296 1.205619,0.585338 1.130044,1.303647 -0.195746,1.860481 -0.580603,0.243856 -1.056853,0.519105 -1.058334,0.611664 -0.0035,0.21831 1.188512,0.771541 3.915847,1.817415 2.131,0.817192 2.342956,0.845534 6.879167,0.919856 5.266526,0.08629 14.215242,0.418769 14.95875,0.555775 0.268812,0.04954 3.423968,0.168977 7.011459,0.265425 3.587491,0.09645 6.627818,0.271645 6.756281,0.389327 0.128463,0.117681 0.155239,0.418091 0.0595,0.667578 -0.160396,0.417988 -0.667015,0.439303 -6.451277,0.271412 -3.452466,-0.100208 -6.812992,-0.231733 -7.467836,-0.292277 -2.195661,-0.202999 -7.224335,-0.401947 -13.890625,-0.549548 -6.022886,-0.133358 -6.837506,-0.09777 -9.106629,0.397844 -4.261404,0.930761 -5.615734,1.954519 -6.622942,5.006387 -0.425644,1.289714 -0.164235,1.76126 1.129624,2.037681 1.998592,0.426982 4.89979,1.477544 5.032034,1.822164 0.200573,0.522687 -0.251224,0.824373 -1.987792,1.327343 -1.956594,0.566698 -3.168859,1.406663 -3.454012,2.393246 -0.262819,0.909312 -0.05608,3.758044 0.350637,4.831599 0.150996,0.398558 0.511694,0.977863 0.801553,1.287341 0.523577,0.559019 0.611919,0.562708 13.542271,0.565504 10.101648,0.0021 14.05178,0.101531 17.645464,0.443794 2.546615,0.242538 7.606771,0.493453 11.244792,0.557585 14.027,0.247272 29.08746,0.297371 34.79271,0.115737 5.77041,-0.183708 6.06682,-0.220244 9.65729,-1.190392 l 3.70417,-1.000869 14.02292,-0.04485 c 7.7126,-0.02466 16.22557,-0.155887 18.91771,-0.291605 2.69213,-0.135718 9.12151,-0.232961 14.2875,-0.216093 31.7013,0.103505 39.08978,0.101438 39.6324,-0.01109 1.28598,-0.266678 13.82612,-0.362206 16.59155,-0.126391 2.82575,0.240959 3.98507,0.419806 13.49375,2.081673 2.47386,0.432363 6.04573,0.865412 7.9375,0.962329 1.89178,0.09691 3.47723,0.207867 3.52323,0.246557 0.25304,0.212813 7.48273,0.102495 9.47809,-0.144626 z M 258.487,92.846885 c -3.18834,-0.326808 -6.91636,-1.068176 -10.50759,-2.089579 -5.40565,-1.537451 -6.74543,-1.728631 -11.81279,-1.685623 -3.08911,0.02622 -4.2824,-0.0504 -4.35889,-0.279863 -0.0803,-0.240949 1.2683,-0.286748 5.68021,-0.192911 l 5.78552,0.123053 3.62084,1.082656 c 9.52061,2.846718 18.68627,3.381449 22.77135,1.328492 1.14857,-0.577215 1.23187,-0.964206 0.37982,-1.764665 -0.71396,-0.67073 -1.7825,-0.832427 -1.24844,-0.188921 0.2635,0.317497 0.1705,0.477679 -0.52171,0.898639 -0.4633,0.281749 -1.36502,0.658606 -2.00382,0.837459 -0.99948,0.279837 -1.2543,0.264358 -1.82714,-0.110987 -0.70989,-0.465133 -0.90115,-1.217727 -0.30947,-1.217727 0.19592,0 0.7087,-0.175839 1.13951,-0.390752 0.4308,-0.214913 1.55042,-0.586409 2.48804,-0.82555 1.95876,-0.499579 2.84873,-0.298443 3.57344,0.807619 0.41238,0.62937 0.41182,0.718016 -0.009,1.359625 -0.6066,0.92578 -2.79938,1.887402 -5.04331,2.211689 -1.74939,0.252817 -5.78828,0.303242 -7.797,0.09735 z M 77.511997,92.058201 c -0.654844,-0.05635 -3.988594,-0.415557 -7.408333,-0.798242 -9.385534,-1.05028 -15.622589,-0.946661 -20.042188,0.33297 -0.863955,0.250145 -0.754063,-0.371261 0.124742,-0.705382 0.39603,-0.150572 1.914077,-0.457602 3.373438,-0.682289 2.850748,-0.438912 9.343189,-0.361198 13.501299,0.16161 6.911708,0.869024 10.45259,1.088052 17.330209,1.071994 4.001823,-0.0093 8.347604,-0.113281 9.657292,-0.230971 2.077368,-0.186674 10.710354,-0.126672 12.567704,0.08735 0.36381,0.04192 1.46513,0.09141 2.4474,0.109988 0.98227,0.01857 1.78594,0.151354 1.78594,0.295073 0,0.167786 -3.00651,0.239959 -8.40052,0.201655 -4.62029,-0.03281 -11.853337,0.01199 -16.073441,0.09953 -4.220104,0.08755 -8.208698,0.113072 -8.863542,0.05672 z m 47.586363,-2.109845 c -1.05704,-0.191302 -1.49013,-0.859703 -1.69142,-2.610406 -0.47064,-4.093324 -2.75793,-5.761178 -7.06344,-5.150546 -2.37663,0.337066 -2.70481,0.576776 -2.17975,1.592136 0.21445,0.414692 0.59827,0.87155 0.85293,1.01524 0.35421,0.199856 0.39025,0.334796 0.15336,0.57417 -0.53313,0.538721 -2.31676,-0.507579 -2.42143,-1.420437 -0.10641,-0.927999 0.3193,-1.454965 1.67276,-2.070642 1.46819,-0.667862 4.89898,-0.663234 6.35,0.0086 2.0144,0.932635 3.30729,2.933989 3.30729,5.119561 0,0.627136 0.18535,1.404868 0.41188,1.728287 0.39592,0.565256 0.57302,0.588039 4.57101,0.588039 4.49131,0 5.8674,-0.131815 13.93482,-1.334812 7.56414,-1.127945 9.33873,-1.248606 18.65313,-1.268272 8.48923,-0.01791 9.78655,-0.118663 19.05,-1.479233 2.95777,-0.434422 14.15521,-0.449236 14.15521,-0.01873 0,0.168373 -2.26093,0.27111 -6.21771,0.282535 -5.88494,0.01699 -6.47967,0.06591 -11.1125,0.914016 l -4.89479,0.896065 -10.05417,0.02756 c -10.15938,0.02785 -12.1659,0.155887 -19.05,1.215593 -7.16957,1.103652 -8.95854,1.292744 -13.28103,1.40379 -2.44533,0.06282 -4.7611,0.0572 -5.14615,-0.01249 z m 135.55482,-0.113123 c 0.0515,-0.154464 0.86508,-0.55631 1.80799,-0.892995 0.9429,-0.336682 2.54781,-0.922168 3.56645,-1.301078 2.54782,-0.947716 4.37225,-0.926997 6.88252,0.07816 1.06897,0.428038 2.36873,0.858007 2.88835,0.955487 0.51962,0.09748 0.94476,0.283051 0.94476,0.412377 0,0.480952 -1.41858,0.207939 -3.58995,-0.690904 -1.23039,-0.509323 -2.62264,-0.923975 -3.09388,-0.921448 -1.56598,0.0084 -4.41122,0.751618 -6.51666,1.702252 -2.10736,0.951497 -3.05966,1.1684 -2.88958,0.658146 z M 76.418432,87.699027 c -0.674219,-0.09684 -1.547717,-0.386966 -1.941103,-0.644721 -0.966398,-0.633211 -3.050749,-0.953069 -3.050749,-0.468159 0,0.423908 -0.03804,0.427961 -0.908817,0.09689 -0.866304,-0.329366 -0.868397,-0.893503 -0.0048,-1.286994 1.11638,-0.508659 1.946016,-0.35547 3.598365,0.664416 1.822723,1.125048 3.424182,1.368388 5.914187,0.898655 0.873125,-0.164714 3.552031,-0.356944 5.953125,-0.42718 6.918571,-0.202378 8.986406,-0.345573 11.201921,-0.775724 3.541859,-0.687668 11.639629,-0.346583 17.530099,0.738386 1.00504,0.185121 2.09525,0.316661 2.42267,0.292311 0.32742,-0.02434 0.83885,-0.05916 1.1365,-0.07735 0.29766,-0.0182 0.85468,-0.34656 1.23784,-0.729711 0.66925,-0.66925 0.67719,-0.710856 0.20198,-1.058333 -0.27204,-0.198932 -0.99651,-0.361696 -1.60992,-0.361696 -0.98502,0 -1.09912,0.0618 -0.97691,0.529167 0.18543,0.709057 -0.35525,0.676089 -0.74127,-0.0452 -0.25473,-0.475972 -0.225,-0.634614 0.17355,-0.926042 0.66969,-0.489691 2.1896,-0.438065 3.29022,0.111755 1.18969,0.59432 1.2911,1.720448 0.22649,2.515291 -0.96097,0.717475 -3.02092,0.680653 -9.72971,-0.173919 -6.4744,-0.824717 -8.59484,-0.850292 -13.118655,-0.158234 -1.952721,0.29873 -5.669876,0.598334 -8.598959,0.693081 -2.837656,0.09179 -6.469062,0.302451 -8.069791,0.468133 -1.60073,0.165682 -3.462052,0.222009 -4.136274,0.125169 z M 136.1793,83.457439 c -1.13002,-0.107919 -3.68986,-0.633029 -5.68854,-1.166911 -1.99868,-0.533884 -4.34835,-1.136936 -5.22147,-1.340114 -2.0809,-0.484233 -2.30996,-0.575758 -2.13786,-0.854218 0.21174,-0.342604 4.91522,0.564867 7.92528,1.529072 1.429,0.45775 3.3308,0.94334 4.22621,1.079087 2.45856,0.372721 14.76173,0.015 22.39783,-0.651237 3.84331,-0.33532 6.35563,-0.479367 11.04664,-0.633368 3.98768,-0.130913 5.09346,-0.09541 5.09323,0.163513 -2.1e-4,0.240037 -0.6714,0.333343 -2.44768,0.340264 -1.34607,0.0052 -3.10224,0.06368 -3.90261,0.129858 -0.80036,0.06618 -3.30068,0.24017 -5.55625,0.386651 -2.25557,0.146479 -5.76792,0.379418 -7.80521,0.517639 -3.20105,0.217181 -9.5419,0.503806 -14.41979,0.65182 -0.80036,0.02429 -2.37976,-0.04414 -3.50978,-0.152056 z M 56.382211,82.178924 c -0.489039,-0.115538 -1.071922,-0.392829 -1.295296,-0.616204 -0.365123,-0.365125 -0.326314,-0.485955 0.384332,-1.196602 1.304946,-1.304943 2.435093,-1.480314 9.473042,-1.46998 5.809633,0.0085 6.687727,0.07235 10.31875,0.749959 3.444033,0.64271 4.825786,0.757679 10.451042,0.869577 6.00031,0.119359 7.676173,0.315336 6.513115,0.761643 -0.249997,0.09593 -3.157169,0.111225 -6.460389,0.03399 -5.329045,-0.124611 -6.457958,-0.232445 -10.017752,-0.956898 -5.406586,-1.100296 -12.433804,-1.40327 -16.319621,-0.703612 -1.959033,0.352732 -2.627572,0.581623 -2.835938,0.970958 -0.382441,0.714597 -0.09717,1.027657 0.936435,1.027657 1.036264,0 1.725816,0.22274 1.725816,0.557475 0,0.282061 -1.628371,0.266216 -2.873536,-0.02796 z m 36.11063,-6.027526 c -1.836547,-0.04073 -3.339177,-0.183615 -3.339177,-0.317529 0,-0.142634 2.65739,-0.227187 6.416146,-0.204147 5.39001,0.03304 7.09318,-0.05643 10.64948,-0.559438 4.2301,-0.598307 9.50099,-0.986168 12.80207,-0.942048 3.8458,0.0514 14.21787,0.442362 14.7146,0.554643 0.29104,0.06579 9.28026,0.180753 19.97604,0.255474 10.69578,0.07472 19.60325,0.185687 19.79437,0.246589 0.19113,0.0609 0.26203,0.249023 0.15757,0.418049 -0.14307,0.231492 -4.40687,0.25943 -17.28084,0.113226 -9.39999,-0.106749 -17.62667,-0.229587 -18.28152,-0.272973 -10.07528,-0.667502 -24.75483,-0.683948 -29.63333,-0.0332 -3.9881,0.531974 -10.917216,0.853527 -15.975409,0.741354 z m 76.961869,-6.785557 c -1.30969,-0.195458 -3.72605,-0.434438 -5.3697,-0.531061 -3.11726,-0.183255 -3.75843,-0.305821 -3.75843,-0.718463 0,-0.146301 0.83748,-0.179795 2.05052,-0.08201 4.02171,0.32421 7.11246,0.629846 9.45886,0.935357 2.95488,0.384742 6.91498,0.198486 14.41979,-0.678211 6.72192,-0.785244 12.96458,-1.141643 12.96458,-0.740162 0,0.158616 -1.23889,0.35011 -2.97656,0.460082 -1.63711,0.103611 -5.47688,0.483902 -8.53281,0.845095 -6.81289,0.805238 -14.78363,1.027631 -18.25625,0.50937 z M 49.466163,68.197195 c 0,-0.214661 1.007868,-0.312422 3.373438,-0.327215 1.855391,-0.01161 4.266406,-0.0625 5.357813,-0.113107 2.687371,-0.124605 10.92477,-0.352872 20.439062,-0.566386 5.887935,-0.132132 7.871355,-0.09945 7.871355,0.129681 0,0.180091 -0.463389,0.316574 -1.12448,0.331197 -2.132729,0.04718 -8.017444,0.211151 -12.898437,0.359408 -13.506713,0.410257 -23.018751,0.487293 -23.018751,0.186422 z M 252.137,67.879746 c -8.65083,-1.038067 -9.29373,-1.078865 -16.00729,-1.015828 -4.11594,0.03865 -6.87917,-0.03435 -6.87917,-0.181732 0,-0.303768 5.5301,-0.544034 10.84792,-0.471308 2.18281,0.02985 5.99281,0.309809 8.46666,0.622128 5.56657,0.702765 9.80469,0.713973 16.53646,0.04373 3.68835,-0.367226 5.612,-0.682525 6.74688,-1.105847 0.87312,-0.325686 2.18281,-0.81143 2.91041,-1.079431 1.56153,-0.575157 2.873,-0.659162 2.71363,-0.173818 -0.0597,0.181901 -0.44993,0.37063 -0.86712,0.419401 -0.41719,0.04877 -1.75952,0.503039 -2.98297,1.009486 -2.36665,0.979678 -2.92655,1.068329 -11.43124,1.809993 -4.91357,0.428496 -7.26954,0.45737 -10.05417,0.123228 z m -67.60968,-6.046904 c -5.41961,-0.887386 -6.98731,-1.375217 -11.02115,-3.429516 -3.602,-1.83438 -5.46922,-2.317324 -9.8723,-2.553407 -2.59052,-0.138895 -8.38486,-0.703178 -16.13958,-1.571749 -0.58208,-0.0652 -9.13474,-0.124587 -19.0059,-0.131982 -13.48235,-0.01011 -17.92214,-0.08973 -17.84537,-0.320056 0.15334,-0.460018 35.42015,-0.474308 39.89398,-0.01617 1.81901,0.186274 6.34338,0.633994 10.05416,0.994934 8.93291,0.868881 9.78931,1.069631 13.59758,3.187417 3.53327,1.964856 5.11565,2.442948 10.91023,3.296367 4.68814,0.690459 6.82868,0.754025 7.90042,0.234608 1.54047,-0.746588 1.0834,-1.81643 -1.36957,-3.205649 -0.75504,-0.427614 -1.79684,-1.246836 -2.3151,-1.820495 -0.77039,-0.852723 -0.9423,-1.249357 -0.9423,-2.174004 0,-1.296699 0.49521,-2.139101 1.59042,-2.705455 0.95603,-0.494384 2.18449,-0.498599 4.9216,-0.01691 2.61917,0.460949 3.86572,0.958358 4.43361,1.769118 0.47322,0.675627 0.58823,2.751371 0.16687,3.011787 -0.15389,0.09511 -0.26459,-0.1679 -0.26459,-0.628618 0,-2.213401 -1.05252,-2.975714 -4.94578,-3.582078 -2.64021,-0.411207 -2.83828,-0.409292 -3.74448,0.03618 -0.65879,0.323845 -1.06935,0.770843 -1.3181,1.435069 -0.57696,1.540621 0.071,2.589506 2.33449,3.778932 3.05989,1.607929 3.92941,3.27691 2.32754,4.467543 -1.12386,0.835334 -4.009,0.818083 -9.34668,-0.05589 z m -31.4321,-2.042986 c -0.0246,-0.01728 -2.96171,-0.112323 -6.52697,-0.211198 -3.56526,-0.09887 -7.01807,-0.228595 -7.67292,-0.288266 -1.44391,-0.131578 -6.67534,-0.339358 -13.09687,-0.520177 -2.61938,-0.07376 -7.26282,-0.208661 -10.31875,-0.299783 -3.05594,-0.09113 -7.06482,-0.20165 -8.90862,-0.24561 -2.69078,-0.06415 -3.59615,-0.187762 -4.5876,-0.62633 -0.67938,-0.300521 -1.1919,-0.676404 -1.13894,-0.835295 0.12223,-0.366686 0.13958,-0.36464 1.40599,0.165844 1.18568,0.496665 5.57472,0.743238 18.38854,1.03305 4.14734,0.0938 8.55266,0.2164 9.78958,0.272441 1.23693,0.05604 4.63021,0.18211 7.54063,0.280152 2.91042,0.09804 5.50181,0.217283 5.75865,0.26498 0.25684,0.0477 3.59059,0.162197 7.40833,0.254447 3.81775,0.09225 7.09773,0.216966 7.28885,0.277143 0.19113,0.06018 0.26917,0.236154 0.17344,0.391057 -0.10995,0.1779 -1.14734,0.251682 -2.81636,0.200305 -1.45327,-0.04473 -2.66241,-0.09548 -2.68698,-0.11276 z m 44.58259,-1.480658 c -2.88304,-0.293812 -4.54289,-1.42266 -4.54289,-3.089567 0,-0.713276 0.8594,-1.351473 1.81991,-1.351473 0.93511,0 2.41342,0.654812 2.41342,1.069018 0,0.349334 -1.5992,1.309997 -2.18281,1.311243 -0.7908,0.0016 -0.51001,0.535874 0.52916,1.006679 0.87434,0.396123 2.33676,0.458943 12.31191,0.528854 10.81528,0.0758 11.46967,0.05244 14.68438,-0.5242 5.53458,-0.992773 10.94428,-0.830139 15.60163,0.46904 1.32736,0.370268 2.0412,1.113626 0.79375,0.826563 -0.32742,-0.07535 -1.72641,-0.402119 -3.10885,-0.726159 -3.47788,-0.815203 -7.62639,-0.81874 -11.37709,-0.0097 -2.61464,0.563988 -3.43207,0.601845 -13.89062,0.6433 -6.11188,0.02423 -11.98523,-0.0449 -13.0519,-0.153602 z m 29.03779,-5.59693 c -0.061,-0.05437 -3.68586,-0.18025 -8.05527,-0.279731 -4.36941,-0.09948 -8.39046,-0.28148 -8.93566,-0.404442 -1.36716,-0.308345 -2.13543,-0.864838 -3.07077,-2.224296 -0.88078,-1.280182 -2.20644,-1.965138 -4.24428,-2.192999 -0.6627,-0.0741 -4.00288,-0.01315 -7.42262,0.135471 -6.87913,0.298943 -8.73148,0.652974 -10.09867,1.930123 -0.80032,0.747612 -1.27841,0.948473 -1.27841,0.537099 0,-0.380823 1.43076,-1.593988 2.24895,-1.906921 1.99739,-0.763942 4.98573,-1.092835 10.96563,-1.206865 7.7091,-0.147006 8.38474,-0.0064 10.22841,2.129149 1.84427,2.13622 2.31212,2.258798 9.20183,2.410958 3.21863,0.07108 6.14971,0.188629 6.51351,0.261212 0.3638,0.07258 4.88818,0.205026 10.05417,0.294315 12.666,0.218919 15.50121,-0.07443 24.87083,-2.573295 8.43606,-2.249885 13.24154,-2.795186 15.29136,-1.73518 1.15019,0.594786 0.85404,0.988261 -0.40553,0.538805 -2.37878,-0.848823 -5.93865,-0.384646 -15.25495,1.989122 -3.36224,0.856692 -7.18473,1.705258 -8.49442,1.885704 -2.1556,0.296995 -21.83187,0.663374 -22.11411,0.411771 z M 54.648159,45.438091 c -0.13736,-0.222252 1.638078,-0.301752 6.774786,-0.303352 7.489909,-0.0024 9.753377,-0.177462 15.295302,-1.183399 6.855593,-1.244386 9.949342,-1.553607 15.742709,-1.573488 6.087562,-0.0209 9.921874,0.401357 9.921874,1.092631 0,0.282541 -0.1944,0.343313 -0.7276,0.227457 -3.603075,-0.782889 -9.770799,-1.065382 -14.221358,-0.651367 -1.455208,0.135371 -4.788958,0.599649 -7.408333,1.031724 -7.590552,1.252093 -8.557461,1.33713 -17.093536,1.50332 -5.920111,0.115263 -8.147759,0.07667 -8.283844,-0.143526 z M 172.49742,34.858894 c 0,-0.219038 1.32713,-0.306795 4.69635,-0.310545 8.84386,-0.0098 16.77507,-0.456385 25.86302,-1.456144 3.20146,-0.35219 8.08302,-0.82259 10.84792,-1.045332 2.76489,-0.222742 5.62239,-0.458237 6.35,-0.523322 3.01527,-0.269722 10.71521,-0.458819 21.29896,-0.523071 9.58938,-0.05822 11.65377,-0.140832 14.02291,-0.561192 1.87579,-0.332824 3.98124,-0.48828 6.48229,-0.47862 3.24972,0.01254 4.22354,0.130296 7.9375,0.959733 4.57215,1.021094 7.69004,1.516507 9.54415,1.516507 0.70267,0 1.17148,0.12109 1.17148,0.30258 0,0.555776 -5.16695,0.06177 -9.90635,-0.947123 -6.09535,-1.297549 -8.58437,-1.412386 -14.83219,-0.684329 -4.44014,0.517411 -6.61801,0.595342 -18.65313,0.667467 -7.49432,0.04491 -14.10229,0.14764 -14.68437,0.228282 -0.58209,0.08064 -2.84427,0.277371 -5.02709,0.437171 -2.18281,0.159801 -8.13593,0.692725 -13.22916,1.184273 -5.09323,0.491548 -9.97479,0.956765 -10.84792,1.033814 -0.87312,0.07705 -5.96305,0.222234 -11.31094,0.32263 -7.27622,0.136597 -9.72343,0.105696 -9.72343,-0.122779 z m -24.87084,-6.570343 c -0.50932,-0.0522 -2.11667,-0.272182 -3.57187,-0.488833 -1.45521,-0.216654 -3.59834,-0.520896 -4.7625,-0.676093 -1.19106,-0.158782 -8.48027,-0.324387 -16.66875,-0.378698 -20.7294,-0.137493 -22.51804,-0.217247 -33.072921,-1.474711 -6.496963,-0.774022 -11.550909,-0.77181 -16.801042,0.0074 -4.185777,0.621202 -5.511576,0.633336 -12.725528,0.116464 -1.549195,-0.110998 -2.463179,-0.06198 -2.866222,0.153723 -0.567773,0.303863 -0.572889,0.337513 -0.126339,0.830945 0.255968,0.282842 1.099283,0.698532 1.874034,0.923758 0.774751,0.225227 1.408638,0.520118 1.408638,0.655312 0,0.690849 -3.308931,-0.376584 -4.32877,-1.396423 l -0.802128,-0.802129 0.779511,-0.431464 c 0.667686,-0.36957 1.842292,-0.43243 8.187846,-0.438187 5.834988,-0.0053 7.998338,-0.106042 10.186458,-0.47438 3.599807,-0.605977 7.628726,-0.585202 12.567709,0.06481 2.182812,0.287276 5.3975,0.644403 7.14375,0.793617 1.74625,0.149215 3.889375,0.331817 4.7625,0.405781 0.873125,0.07397 8.255004,0.196789 16.404164,0.272942 20.63877,0.192865 22.34994,0.256566 27.51667,1.024355 2.47385,0.36762 5.15276,0.694148 5.95312,0.725617 1.63407,0.06425 2.11667,0.184994 2.11667,0.52958 0,0.228973 -1.27245,0.251682 -3.175,0.05667 z m 51.75728,-5.301305 c -0.0754,-0.07542 -8.38815,-0.158237 -18.47272,-0.184031 -15.54507,-0.03976 -18.79868,-0.114022 -21.37831,-0.487934 -5.97803,-0.8665 -12.50064,-1.258152 -21.96042,-1.318625 -3.17155,-0.02027 -4.45229,0.07741 -5.65083,0.431011 -1.50903,0.445199 -2.11091,0.408901 -1.6052,-0.0968 0.13712,-0.13712 1.02215,-0.44922 1.96673,-0.693557 1.48016,-0.382874 2.57643,-0.419635 7.93514,-0.266095 9.64975,0.27649 11.97573,0.4151 16.66875,0.993336 6.51747,0.803029 10.24879,0.925108 27.64896,0.904605 l 15.875,-0.01871 0.0865,-0.609875 c 0.0476,-0.335433 -0.0407,-0.763106 -0.19614,-0.950386 -0.37365,-0.450223 -0.0988,-0.688694 0.7936,-0.688694 1.13409,0 1.56505,0.266104 1.56505,0.966374 0,0.743839 -1.07528,1.934515 -1.77392,1.964286 -0.26127,0.01114 -0.67528,0.05894 -0.92002,0.106232 -0.24475,0.04729 -0.50669,0.02429 -0.58212,-0.05114 z m 11.04563,-0.979448 c -0.89273,-0.205219 -2.32148,-0.669036 -3.175,-1.030706 -0.85353,-0.361669 -2.31682,-0.9804 -3.25176,-1.374954 -1.99616,-0.842399 -3.5758,-0.799145 -4.83581,0.132421 -0.53536,0.395811 -0.87903,0.498655 -1.06038,0.317312 -0.44914,-0.449149 1.73506,-1.698985 3.2182,-1.841495 1.12683,-0.108275 1.63967,0.03396 3.8961,1.080537 4.07951,1.892173 5.07962,2.096474 10.66824,2.179262 2.69214,0.03988 6.02589,-0.03803 7.40834,-0.173125 1.38244,-0.135098 4.89479,-0.478549 7.8052,-0.763222 2.91042,-0.284673 6.54183,-0.584922 8.0698,-0.667216 1.52796,-0.0823 3.63475,-0.203951 4.68173,-0.270348 1.12086,-0.07108 1.97092,-0.01183 2.06729,0.144124 0.24689,0.399473 -0.21387,0.46928 -4.17718,0.632859 -3.02228,0.124738 -8.17312,0.56895 -18.57914,1.602272 -0.7276,0.07225 -3.52557,0.193027 -6.2177,0.268385 -3.68013,0.103018 -5.29759,0.04443 -6.51793,-0.236106 z M 100.5202,14.409764 c -1.824806,-0.09836 -5.932463,-0.487778 -9.128121,-0.865376 -7.882483,-0.931389 -11.877382,-1.193813 -20.89154,-1.372362 -4.220104,-0.08359 -7.829292,-0.200784 -8.020416,-0.260432 -0.191124,-0.05964 -0.266497,-0.239511 -0.167495,-0.3997 0.172465,-0.279056 10.724955,-0.178041 15.993119,0.153095 1.091406,0.0686 3.234531,0.19689 4.7625,0.285086 1.527969,0.0882 4.802188,0.391404 7.276042,0.673788 12.895601,1.472015 14.852271,1.58745 15.119151,0.891969 0.28714,-0.748258 -0.42368,-1.187257 -1.92238,-1.187257 -0.78255,0 -1.42281,0.119062 -1.42281,0.264583 0,0.392081 -0.68243,0.320646 -1.03879,-0.108735 -0.48498,-0.584375 0.0798,-0.76794 2.37937,-0.773341 2.22172,-0.0052 3.42192,0.477518 3.42192,1.376337 0,1.315669 -1.33504,1.593222 -6.36055,1.322345 z m 13.87352,-1.553935 c -1.17163,-0.367792 -2.22131,-1.506316 -2.22131,-2.409317 0,-0.5042247 -0.21188,-0.8904052 -0.64382,-1.1734247 -0.56942,-0.3730943 -1.06636,-0.3869611 -4.29948,-0.11997 -5.51084,0.4550833 -7.556023,1.0257027 -8.016414,2.2366177 -0.298399,0.784847 -0.798615,0.898324 -0.798615,0.181169 0,-0.790605 1.29423,-1.8653156 2.752429,-2.2855718 1.44135,-0.4154064 6.38574,-0.919517 9.05528,-0.923245 1.819,-0.00265 2.09643,0.1934686 2.747,1.9408378 0.25909,0.69591 0.7083,1.253363 1.27817,1.586188 1.14631,0.669478 3.82244,0.854448 6.67621,0.461454 4.78368,-0.658767 20.80613,-0.84791 43.76904,-0.516686 10.01195,0.144415 16.73878,-2.65e-4 19.51302,-0.419852 0.74712,-0.112982 0.99219,-0.05818 0.99219,0.221872 0,0.706729 -4.67505,0.825389 -30.55938,0.775637 -14.11552,-0.02713 -26.73615,0.05739 -28.04583,0.187833 -3.84993,0.383434 -11.29537,0.539967 -12.19849,0.256458 z M 216.68283,9.5739582 c 0,-0.359156 0.45281,-0.423246 3.10886,-0.4400444 1.70987,-0.010821 3.34698,-0.058277 3.63802,-0.1054761 0.29104,-0.047199 1.83885,-0.1614408 3.43958,-0.2538704 1.60073,-0.092429 4.69636,-0.2895864 6.87917,-0.4381262 2.18281,-0.1485397 9.0289,-0.2530581 15.21354,-0.2322645 8.93401,0.030038 11.57102,-0.039902 12.83229,-0.3403335 7.06288,-1.6823664 8.89247,-1.9905848 8.30017,-1.3982832 -0.0673,0.067321 -2.02193,0.6276975 -4.34358,1.24528 l -4.22117,1.1228784 -13.49375,0.035608 c -7.42156,0.019579 -13.73188,0.09951 -14.02292,0.1776148 -0.29104,0.078105 -2.13651,0.2206493 -4.10104,0.3167671 -1.96453,0.096118 -4.04813,0.2259304 -4.63021,0.2884726 -0.58208,0.062545 -2.75497,0.187616 -4.82865,0.2779368 -3.33761,0.1453753 -3.77031,0.1159775 -3.77031,-0.2561594 z M 94.709914,2.0783722 C 92.570506,1.9170936 89.440594,1.398823 85.521787,0.55694394 81.665723,-0.27145589 79.124347,-0.66617454 75.39533,-1.0158667 c -0.800364,-0.075055 -3.806692,-0.1393536 -6.680729,-0.1428858 -4.684153,-0.00576 -5.225521,-0.051803 -5.225521,-0.4444556 0,-0.3999304 0.535102,-0.4233653 6.151563,-0.2694114 8.061896,0.2209861 9.029009,0.3476448 18.454688,2.4169317 4.019055,0.8823322 7.64278,1.0752778 13.026109,0.6935761 2.43494,-0.1726475 7.07837,-0.36857225 10.31875,-0.43538827 3.24038,-0.066816 7.82832,-0.29875163 10.19542,-0.51541257 5.02114,-0.45958495 7.20555,-0.498797 7.20555,-0.12934579 0,0.14552083 -0.26789,0.26788057 -0.59531,0.27191044 -0.32742,0.00403 -1.42875,0.0730422 -2.44739,0.15336096 -6.73027,0.53067193 -11.87158,0.82444883 -15.08125,0.86175003 -2.0373,0.023675 -5.13292,0.1627484 -6.87917,0.309049 -3.42578,0.2870117 -7.639003,0.4368172 -9.128126,0.3245601 z m 84.931256,-7.3943879 c -0.50933,-0.02739 -4.02167,-0.1855857 -7.80521,-0.3515466 -3.78354,-0.165961 -7.13215,-0.3413231 -7.44136,-0.3896937 -1.00386,-0.1570405 -19.87367,-0.4664477 -27.48364,-0.4506476 -5.48647,0.01139 -8.6095,0.1488411 -12.03855,0.5298379 -5.54168,0.6157296 -15.99242,0.7995282 -15.81864,0.2782049 0.0788,-0.2364544 1.69311,-0.3305493 6.17674,-0.3600318 4.77071,-0.031371 6.63638,-0.148921 8.71586,-0.5491609 2.39952,-0.4618369 3.88975,-0.5084059 16.00729,-0.500216 14.14401,0.00956 21.77152,0.2029862 28.04584,0.7112164 5.38236,0.4359809 20.22063,0.4331483 22.74796,-0.00434 2.79645,-0.4840759 5.20858,-1.3822678 7.03354,-2.6190435 2.43144,-1.6477814 3.67527,-2.1908284 5.44069,-2.3753504 1.32419,-0.138405 1.60379,-0.10154 1.50385,0.198281 -0.0707,0.212046 -0.56296,0.399584 -1.16034,0.442043 -1.54,0.109455 -2.32068,0.439553 -4.92325,2.0817192 -2.76036,1.7417262 -5.19596,2.5808279 -8.68203,2.9910863 -2.33239,0.2744861 -8.17809,0.4827614 -10.31875,0.3676441 z m 25.46028,-0.3432935 c -0.96445,-0.4101322 -1.0434,-1.0667677 -0.20834,-1.7326237 1.76224,-1.405155 5.17514,-1.5630546 5.17514,-0.2394302 0,0.3473217 -0.0931,0.3462113 -0.78061,-0.00931 -0.92519,-0.4784312 -1.74575,-0.5100243 -2.88966,-0.1112562 -1.04183,0.3631832 -1.5897,1.2223273 -0.93876,1.472116 0.60741,0.233086 13.71979,-0.1173798 16.64757,-0.4449541 1.30969,-0.1465342 3.86953,-0.5331502 5.68854,-0.8591465 3.11472,-0.5582081 3.91583,-0.5885326 13.75834,-0.5207958 11.26854,0.077551 12.36247,-0.00453 17.19791,-1.290352 5.53804,-1.4726583 6.57203,-1.8226323 7.3709,-2.4948373 0.55679,-0.468515 0.84861,-0.57363 0.98407,-0.354468 0.45845,0.741799 -1.97574,1.875946 -6.6989,3.1211787 -5.80061,1.5292941 -7.20703,1.7036235 -12.76857,1.5826957 -11.35166,-0.2468264 -14.84219,-0.1195689 -20.76979,0.7572227 -3.10211,0.458855 -7.25077,0.8851156 -9.39271,0.9650698 -10.13694,0.3783912 -11.8085,0.3998532 -12.37513,0.1588909 z M 78.305747,-11.746634 c -1.975924,-0.234682 -4.658384,-0.455012 -8.069792,-0.662829 -4.490663,-0.273564 -6.091431,-0.386452 -9.789544,-0.69037 -4.390544,-0.360822 -7.219619,-0.192013 -9.163403,0.546776 -1.663861,0.632396 -1.552261,0.613667 -1.552261,0.260504 0,-0.153703 0.565547,-0.540656 1.256771,-0.859895 1.122678,-0.518505 1.694336,-0.580435 5.357812,-0.580435 4.232406,0 11.600538,0.405747 19.446875,1.070898 5.194277,0.44033 12.171337,0.4949 16.852776,0.131812 1.790557,-0.138874 4.505714,-0.31506 6.033683,-0.391523 1.527966,-0.07646 4.177106,-0.219141 5.886976,-0.317061 2.061,-0.118029 3.10886,-0.0867 3.10886,0.09294 0,0.28573 -1.29881,0.407556 -9.260419,0.868612 -2.692136,0.155901 -6.144948,0.379755 -7.672917,0.497452 -3.590787,0.276593 -10.236433,0.29429 -12.435417,0.03312 z m 142.610423,0.09875 c -2.60091,-0.300903 -4.59157,-0.753241 -7.63243,-1.734314 l -3.34778,-1.080099 -4.23898,0.03752 c -2.33145,0.02064 -4.50183,0.08814 -4.82309,0.150005 -0.60684,0.116866 -1.05003,-0.23536 -0.62594,-0.497463 0.36963,-0.228439 8.73115,-0.259396 10.08488,-0.03734 0.65485,0.107416 2.14313,0.490685 3.30729,0.851709 4.869,1.50994 4.6254,1.489228 18.38855,1.563467 15.73596,0.08488 21.10528,-0.266867 29.10416,-1.906629 4.09935,-0.840361 3.82002,-0.805453 3.92228,-0.490191 0.0472,0.145521 -0.41389,0.410085 -1.02466,0.58792 -1.83465,0.534184 -8.62816,1.604092 -12.15803,1.914765 -1.81901,0.160095 -3.78355,0.346615 -4.36563,0.414488 -1.38376,0.161352 -25.38622,0.365501 -26.59062,0.226162 z"
         style="fill:#533518;stroke-width:0.264583" />
    </g>
    <g
       aria-label="Score"
       id="text12"
       style="font-size:37.2896px;line-height:1.25;font-family:PWJoyeuxNoel;-inkscape-font-specification:PWJoyeuxNoel;letter-spacing:0px;fill:#ffffff;stroke-width:0.932239"
       transform="matrix(0.25246035,0,0,0.25246035,71.252103,125.42609)">
      <path
         d="m 39.758801,132.01825 c -0.04972,0.0497 -0.09944,0.087 -0.149159,0.11187 -0.149158,0.0746 -0.310746,0.087 -0.484765,0.0373 -0.149158,-0.0497 -0.285886,-0.14917 -0.410185,-0.29832 -0.248597,-0.29832 -0.385326,-0.79551 -0.410186,-1.49158 0,-0.19888 0.01243,-0.44748 0.03729,-0.7458 v -0.63392 c 0,-2.83401 0.93224,-5.20811 2.79672,-7.12231 1.86448,-1.9142 4.238584,-2.92102 7.122313,-3.02046 2.262236,-0.0746 4.052137,0.44747 5.369703,1.56616 1.143547,0.96953 2.100647,2.57299 2.871299,4.81036 0.02486,0.0497 0.07458,0.17403 0.149158,0.3729 0.07458,0.19887 0.124299,0.3356 0.149159,0.41018 l 0.111869,0.48477 c 0.07458,0.22373 0.111868,0.38532 0.111868,0.48476 v 0.48477 c -0.09944,0.74579 -0.372896,1.15597 -0.820371,1.23055 h -0.111869 c 0.04972,0.2486 0.07458,0.50963 0.07458,0.78308 0,0.89495 -0.335607,1.55374 -1.00682,1.97635 -0.522054,0.32318 -1.168407,0.42262 -1.939059,0.29832 -0.696073,-0.1243 -1.354856,-0.39776 -1.976349,-0.82037 -0.596633,-0.42261 -1.019249,-0.94467 -1.267846,-1.56616 -0.372896,-0.22374 -0.621493,-0.53449 -0.745792,-0.93224 -0.09944,-0.32318 -0.124299,-0.75823 -0.07458,-1.30514 0.04972,-0.44747 0.06215,-0.72093 0.03729,-0.82037 0,-0.0994 -0.03729,-0.16159 -0.111868,-0.18645 -0.02486,-0.0249 -0.124299,-0.0249 -0.298317,0 -0.223738,0.0249 -0.484765,0.087 -0.783082,0.18645 -0.646353,0.17402 -1.093828,0.36047 -1.342425,0.55934 l -0.149159,0.41019 c -0.198878,0.62149 -0.522054,0.98196 -0.969529,1.0814 l -0.03729,0.0373 c -0.07458,0.89495 0.02486,1.62831 0.298317,2.20008 0.273457,0.52205 0.745792,0.96953 1.417005,1.34243 0.348036,0.19888 1.131117,0.54692 2.349244,1.04411 1.193267,0.47233 2.100648,0.94467 2.722141,1.417 1.367285,0.91981 2.448684,2.33682 3.244195,4.25102 0.621493,1.56616 0.770652,3.13232 0.447476,4.69849 -0.447475,2.08821 -1.404575,3.59223 -2.8713,4.51204 -1.491584,0.91981 -3.182046,1.25541 -5.071385,1.00682 -1.765041,-0.22374 -3.418214,-0.90738 -4.959517,-2.05093 -1.541303,-1.14355 -2.635132,-2.57298 -3.281485,-4.2883 l -0.261027,-0.78309 -0.111869,-0.29831 c -0.04972,-0.0994 -0.08701,-0.19888 -0.111869,-0.29832 -0.02486,-0.0746 -0.03729,-0.13673 -0.03729,-0.18645 0,-0.0497 -0.01243,-0.087 -0.03729,-0.11187 v -0.26102 c 0.07458,-0.64635 0.360466,-1.10626 0.857661,-1.37972 0.497195,-0.27346 1.044109,-0.41019 1.640742,-0.41019 1.168408,-0.0497 2.100648,0.17401 2.79672,0.67122 0.372896,0.27345 0.733362,0.78308 1.081399,1.52887 l 0.335606,0.85766 c 0.124299,0.29832 0.236168,0.54692 0.335607,0.74579 0.273457,0.4972 0.571773,0.82038 0.89495,0.96953 0.422615,0.19888 0.994389,0.19888 1.715322,0 0.273457,-0.0746 0.534484,-0.32317 0.783081,-0.74579 0.273457,-0.44747 0.447476,-0.88252 0.522055,-1.30513 0.07458,-0.47234 -0.261028,-0.9944 -1.00682,-1.56617 -0.422615,-0.34803 -1.553733,-1.01925 -3.393353,-2.01364 l -1.86448,-1.11868 c -0.522055,-0.29832 -1.106258,-0.69608 -1.752611,-1.19327 -0.621493,-0.52205 -1.143548,-1.0814 -1.566164,-1.67803 -0.397755,-0.59663 -0.683642,-1.24299 -0.85766,-1.93906 z m 8.35287,-7.86811 c 0.09944,0.0249 0.273457,0.0497 0.522054,0.0746 0.372896,0.0249 0.646353,0.087 0.820372,0.18645 0.248597,0.0994 0.422615,0.27346 0.522054,0.52205 0.397756,0.27346 0.633923,0.65879 0.708502,1.15598 0.02486,0.22374 0.01243,0.6215 -0.03729,1.19327 0,0.0497 -0.01243,0.11188 -0.03729,0.18645 0.124299,0.22373 0.285887,0.34803 0.484765,0.37289 0.198878,0.0249 0.459905,-0.0373 0.783082,-0.18645 0.149158,-0.0746 0.298316,-0.17401 0.447475,-0.29831 0.09944,-0.1243 0.174018,-0.22374 0.223737,-0.29832 0.298317,-0.34803 0.621494,-0.55934 0.96953,-0.63392 0.174018,-0.0249 0.372896,0.0124 0.596634,0.11187 0.149158,0.0746 0.310746,0.18645 0.484764,0.3356 0.07458,0.0497 0.236168,0.18646 0.484765,0.41019 0.198878,0.17402 0.348036,0.29832 0.447475,0.37289 0.273457,0.22374 0.459905,0.32318 0.559344,0.29832 0.07458,0 0.136729,-0.18645 0.186448,-0.55934 0.04972,-0.27346 -0.09944,-0.91981 -0.447475,-1.93906 -0.745792,-2.08822 -1.640742,-3.5798 -2.684851,-4.47475 -1.168407,-0.99439 -2.79672,-1.4543 -4.884938,-1.37972 -2.659991,0.0994 -4.860078,1.03168 -6.600259,2.79672 -1.715321,1.76504 -2.572982,3.96513 -2.572982,6.60026 v 0.63392 c -0.02486,0.29832 -0.03729,0.54692 -0.03729,0.7458 0.02486,0.52205 0.111869,0.87009 0.261027,1.0441 0.04972,-0.0497 0.111869,-0.13674 0.186448,-0.26102 0.198878,-0.29832 0.348037,-0.4972 0.447476,-0.59664 0.248597,-0.27345 0.522054,-0.36046 0.820371,-0.26102 0.323177,0.0746 0.609064,0.26102 0.857661,0.55934 l 0.298316,0.3729 c 0.09944,0.14915 0.161589,0.24859 0.186448,0.29831 0.149159,0.17402 0.261028,0.27346 0.335607,0.29832 0.124299,0 0.285887,-0.0746 0.484765,-0.22374 0,-0.0249 0.01243,-0.0497 0.03729,-0.0746 0.02486,-0.27345 0.03729,-0.62149 0.03729,-1.04411 0,-0.27345 -0.01243,-0.68364 -0.03729,-1.23055 -0.02486,-0.54691 -0.03729,-0.93224 -0.03729,-1.15598 v -0.48477 -0.0373 c -0.09944,-0.84523 -0.07458,-1.4543 0.07458,-1.8272 0.198878,-0.47233 0.484765,-0.7085 0.857661,-0.7085 0.223737,0 0.497194,0.1243 0.820371,0.3729 0.298317,0.19888 0.484765,0.31075 0.559344,0.3356 0.07458,0.0249 0.124299,0.0124 0.149158,-0.0373 0.07458,-0.0497 0.136729,-0.18646 0.186448,-0.41019 0,-0.0497 0.01243,-0.11188 0.03729,-0.18645 0,-0.52205 0.07458,-0.93224 0.223737,-1.23056 0.174019,-0.34803 0.435046,-0.54691 0.783082,-0.59663 0.497195,-0.0249 0.994389,0.26102 1.491584,0.85766 z"
         style="fill:none;stroke:#ffffff;stroke-width:0.932239"
         id="path18"
         sodipodi:nodetypes="cccsccsscccsccscccsccccccccccccccccccccccsccccsccsccccccccccccccsccccccccsccccccccccccccsccccccccccccssscccscscccscsc" />
      <path
         d="m 61.424011,132.9132 c -0.07458,0.0249 -0.161588,0.0249 -0.261027,0 -0.174019,-0.0497 -0.323177,-0.19889 -0.447476,-0.44748 -0.09944,-0.14915 -0.174018,-0.34803 -0.223737,-0.59663 -0.124299,-0.42261 -0.211308,-0.90738 -0.261027,-1.4543 -0.02486,-0.54691 -0.01243,-0.9571 0.03729,-1.23055 0.07458,-0.2486 0.186448,-0.52206 0.335607,-0.82037 0.124299,-0.32318 0.236167,-0.58421 0.335606,-0.78308 l 0.484765,-0.85767 c 0.198878,-0.34803 0.323177,-0.5842 0.372896,-0.7085 l 1.006819,-1.86448 c 0.248597,-0.42261 0.584204,-0.91981 1.006819,-1.49158 0.422615,-0.57177 0.845231,-1.04411 1.267847,-1.41701 1.441864,-1.31757 3.306344,-1.83962 5.59344,-1.56616 1.267846,0.14916 2.175226,0.47234 2.722141,0.96953 0.472335,0.42261 0.969529,1.20569 1.491584,2.34924 0.522054,1.11869 0.91981,2.2871 1.193267,3.50523 0.323177,1.417 0.422616,2.58541 0.298317,3.50522 -0.174019,1.21813 -0.671213,1.98878 -1.491584,2.31195 -0.497195,0.19888 -1.193267,0.18645 -2.088218,-0.0373 -0.870091,-0.24859 -1.504014,-0.90737 -1.90177,-1.97634 -0.198877,-0.62149 -0.360465,-1.56616 -0.484764,-2.83401 -0.07458,-1.16841 -0.174018,-1.88934 -0.298317,-2.1628 -0.07458,-0.14916 -0.136729,-0.22374 -0.186448,-0.22374 -0.124299,-0.0497 -0.310747,0.0124 -0.559344,0.18645 -0.174018,0.0994 -0.385326,0.44748 -0.633923,1.04411 -0.248598,0.52205 -0.497196,1.23056 -0.745793,2.12551 l -0.745792,2.79672 c 0.02486,0.12429 0.03729,0.28588 0.03729,0.48476 0,0.34804 -0.04972,0.80795 -0.149158,1.37972 -0.02486,0.24859 -0.08701,0.73336 -0.186448,1.45429 -0.09944,0.52205 -0.149159,0.84523 -0.149159,0.96953 -0.149158,2.33681 -0.111868,4.164 0.111869,5.48157 0.372896,2.11308 1.205697,3.26906 2.498403,3.46793 0.397756,0.0746 0.696073,0.0373 0.894951,-0.11186 l 0.149158,-0.22374 c 0.248597,-0.39776 0.484765,-0.91982 0.708503,-1.56617 0.02486,-0.17401 0.136729,-0.89494 0.335606,-2.16279 0.124299,-0.96953 0.298317,-1.66561 0.522054,-2.08822 0.298317,-0.49719 0.671213,-0.84523 1.118688,-1.04411 0.472335,-0.19888 0.96953,-0.23617 1.491584,-0.11187 0.96953,0.19888 1.678033,0.74579 2.125508,1.64074 0.795511,1.56617 0.770651,3.38093 -0.07458,5.44429 -0.770651,1.88934 -1.901769,3.25662 -3.393353,4.10185 -1.143548,0.64635 -2.722141,0.96953 -4.735779,0.96953 -1.292707,0 -2.299526,-0.22374 -3.020458,-0.67121 -2.237376,-1.44187 -3.567372,-3.9527 -3.989987,-7.5325 -0.124299,-0.84523 -0.186448,-1.72775 -0.186448,-2.64756 -0.02486,-0.91981 -0.01243,-1.98878 0.03729,-3.20691 0.02486,-1.24299 0.03729,-2.02607 0.03729,-2.34924 z m 1.417004,-1.34244 0.410185,0.85766 0.186448,0.41019 c 0.07458,0.0249 0.161588,0.0373 0.261027,0.0373 0.397756,0.0249 0.671213,-0.0497 0.820372,-0.22374 0.124299,-0.17402 0.211308,-0.44748 0.261027,-0.82037 0,-0.0497 0.01243,-0.44749 0.03729,-1.19327 0,-0.52205 0.06215,-0.91981 0.186448,-1.19326 0.07458,-0.14916 0.149159,-0.26103 0.223738,-0.33561 0.149159,-0.17402 0.323177,-0.22374 0.522054,-0.14916 0.09944,0.0497 0.186449,0.14917 0.261028,0.29832 l 0.111868,0.22373 c -0.0046,0.2389 0.09964,0.0332 0.11187,0.0373 0.04972,-0.12429 0.09944,-0.28588 0.149159,-0.48476 0.02486,-0.0746 0.04972,-0.18645 0.07458,-0.33561 0.04972,-0.14915 0.09944,-0.27345 0.149158,-0.37289 l 0.07458,-0.29832 c 0.447475,-1.14355 1.155978,-2.26223 2.125508,-3.35606 0.07458,-0.0746 0.161588,-0.11187 0.261027,-0.11187 0.397756,-0.22374 0.733362,-0.29832 1.006819,-0.22374 0.323177,0.0746 0.559344,0.29832 0.708503,0.67121 0.149158,0.34804 0.273457,1.14355 0.372896,2.38654 0.09944,1.21813 0.248597,2.10065 0.447475,2.64756 0.298317,0.82037 0.770652,1.31757 1.417005,1.49158 0.720932,0.19888 1.242986,0.23617 1.566163,0.11187 0.571774,-0.22373 0.91981,-0.79551 1.044109,-1.71532 0.124299,-0.87009 0.03729,-1.95149 -0.261028,-3.2442 -0.273457,-1.19327 -0.658782,-2.32438 -1.155977,-3.39335 -0.472335,-1.04411 -0.919811,-1.75261 -1.342426,-2.12551 -0.422615,-0.37289 -1.180837,-0.62149 -2.274665,-0.74579 -2.088218,-0.24859 -3.76625,0.19888 -5.034097,1.34243 -0.546914,0.49719 -1.044109,1.09383 -1.491584,1.7899 -0.422615,0.67121 -0.957099,1.61588 -1.603452,2.83401 l -0.410186,0.7085 -0.447475,0.78308 c -0.09944,0.19888 -0.211308,0.44748 -0.335607,0.74579 -0.124299,0.27346 -0.211308,0.53449 -0.261027,0.78309 -0.04972,0.17401 -0.06215,0.49719 -0.03729,0.96953 0.04972,0.49719 0.124299,0.93224 0.223737,1.30513 0.04972,0.17402 0.09944,0.31075 0.149159,0.41019 0.02486,-0.0497 0.04972,-0.11188 0.07458,-0.18645 -0.02486,-0.34804 0.124298,-0.58421 0.447475,-0.7085 0.174018,-0.0994 0.360466,-0.11187 0.559344,-0.0373 0.198878,0.0746 0.335607,0.21131 0.410186,0.41018 z"
         style="fill:none;stroke:#ffffff;stroke-width:0.932239"
         id="path20"
         sodipodi:nodetypes="sccccccccccsccccccccccccccccscccccccccccccccsccccssccccccccccscccccccccccscccccscccccccccccccssc" />
      <path
         d="m 81.672199,132.39114 c -0.198878,0.1243 -0.422616,0.13673 -0.671213,0.0373 -0.323177,-0.0994 -0.546914,-0.33561 -0.671213,-0.7085 -0.07458,-0.27345 -0.111869,-0.62149 -0.111869,-1.04411 0.02486,-0.69607 0.186448,-1.60345 0.484765,-2.72214 0.248597,-0.89495 0.546914,-1.77747 0.89495,-2.64756 0.323177,-0.87009 0.571774,-1.44187 0.745792,-1.71532 1.242987,-1.83962 2.759431,-3.25663 4.549332,-4.25102 1.367285,-0.74579 2.747,-1.20569 4.139145,-1.37971 1.392145,-0.19888 2.759431,-0.0249 4.101856,0.52205 1.342426,0.52205 2.461114,1.417 3.356064,2.68485 0.745792,1.04411 1.242987,2.17523 1.491584,3.39336 0.174018,0.79551 0.111868,1.39214 -0.186448,1.7899 -0.149158,0.22373 -0.360466,0.37289 -0.633923,0.44747 0.174018,0.42262 0.323176,0.96954 0.447475,1.64075 0.223738,1.31756 0.335607,2.59783 0.335607,3.84082 0,1.24299 -0.06215,2.4984 -0.186448,3.76625 -0.124299,1.24299 -0.348036,2.58541 -0.671213,4.02728 -0.298317,1.44187 -0.770652,2.79672 -1.417005,4.06457 -0.621493,1.24299 -1.392145,2.24981 -2.311955,3.02046 -0.894951,0.77065 -1.88934,1.2927 -2.983168,1.56616 -1.068969,0.24859 -2.175227,0.19887 -3.318775,-0.14916 -3.057747,-0.94467 -5.158394,-3.34363 -6.301942,-7.19689 -0.696073,-2.33682 -1.056539,-5.33242 -1.081398,-8.9868 z m 12.305568,-4.58662 c -0.09944,-0.14915 -0.198878,-0.3356 -0.298317,-0.55934 -0.09944,-0.2486 -0.174018,-0.45991 -0.223738,-0.63392 -0.04972,-0.17402 -0.111869,-0.39776 -0.186448,-0.67122 -0.04972,-0.27345 -0.09944,-0.4599 -0.149158,-0.55934 -0.149159,-0.54691 -0.348037,-0.98196 -0.596634,-1.30514 -0.223737,-0.32317 -0.559344,-0.53448 -1.006819,-0.63392 -0.397755,-0.1243 -0.783081,0.0373 -1.155977,0.48476 -0.273457,0.29832 -0.621494,0.88253 -1.044109,1.75262 -0.422616,0.87009 -0.745793,1.44186 -0.96953,1.71532 0.108498,0.78666 0.240747,0.84945 0.07458,1.71532 -0.273457,0.82037 -0.472334,1.65317 -0.596633,2.4984 -0.323177,2.06336 -0.310747,4.01485 0.03729,5.85447 0.223738,1.34243 0.733363,2.67242 1.528874,3.98999 0.870091,1.44186 1.690462,1.98877 2.461114,1.64074 0.447475,-0.17402 0.85766,-0.69607 1.230556,-1.56616 0.348037,-0.79551 0.633924,-1.88934 0.857661,-3.28149 0.348037,-2.08822 0.522055,-4.23859 0.522055,-6.4511 0,-0.37289 -0.02486,-1.00682 -0.07458,-1.90177 -0.02486,-0.14916 -0.03729,-0.29832 -0.03729,-0.44747 0,-0.19888 -0.01243,-0.38533 -0.03729,-0.55935 l -0.07458,-0.14916 c -0.174018,-0.24859 -0.261027,-0.49719 -0.261027,-0.74579 z m 1.752611,0.26103 h 0.03729 c 0.04972,-0.0994 0.08701,-0.23617 0.111868,-0.41019 l 0.261028,-0.93224 c 0.174018,-0.49719 0.410185,-0.84523 0.708502,-1.0441 0.422615,-0.27346 0.845231,-0.32318 1.267846,-0.14916 0.248597,0.0994 0.472335,0.28589 0.671213,0.55934 0.198878,0 0.335607,-0.0622 0.410186,-0.18645 0.149158,-0.22373 0.174018,-0.62149 0.07458,-1.19326 -0.248597,-1.09383 -0.708502,-2.12551 -1.379715,-3.09504 -0.795511,-1.14355 -1.802331,-1.95149 -3.020458,-2.42382 -1.193267,-0.4972 -2.448684,-0.65879 -3.766249,-0.48477 -1.292707,0.14916 -2.572983,0.58421 -3.840829,1.30514 -1.690462,0.91981 -3.132327,2.26223 -4.325594,4.02727 -0.124299,0.19888 -0.348036,0.72094 -0.671213,1.56617 -0.323177,0.84523 -0.596634,1.70289 -0.820371,2.57298 -0.298317,1.04411 -0.459905,1.88934 -0.484765,2.53569 0,0.34804 0.02486,0.60907 0.07458,0.78308 0.04972,0.14916 0.111869,0.23617 0.186448,0.26103 0.04972,0 0.08701,-0.0124 0.111869,-0.0373 0.07458,-0.0746 0.149159,-0.21131 0.223738,-0.41018 0.02486,-0.0994 0.06215,-0.21131 0.111869,-0.33561 0.04972,-0.14916 0.08701,-0.2486 0.111868,-0.29832 0.04972,-0.1243 0.08701,-0.22374 0.111869,-0.29831 0.07458,-0.1243 0.174018,-0.21131 0.298317,-0.26103 0.223737,-0.0994 0.422615,-0.087 0.596634,0.0373 0.149158,0.0746 0.261027,0.21131 0.335606,0.41018 0.07458,0.14916 0.149159,0.48477 0.223738,1.00682 0.09944,0.47233 0.186448,0.80794 0.261027,1.00682 0.09944,0.2486 0.198878,0.39776 0.298317,0.44748 0.07458,0 0.136728,0.0124 0.186448,0.0373 0.124299,-0.27346 0.248597,-0.6215 0.372896,-1.04411 L 85.252,129.07237 v -0.0746 c 0,-0.0497 0.01243,-0.0994 0.03729,-0.14916 0.124299,-0.49719 0.223738,-0.85766 0.298317,-1.0814 l 0.186448,-0.48476 c 0.149158,-0.29832 0.360466,-0.47234 0.633923,-0.52206 0.472335,-0.0746 0.845231,0.0497 1.118688,0.3729 0.07458,-0.0249 0.136729,-0.0746 0.186448,-0.14916 0.198878,-0.22373 0.509625,-0.77065 0.93224,-1.64074 0.447475,-0.91981 0.832801,-1.55374 1.155978,-1.90177 0.571773,-0.67121 1.218126,-0.91981 1.939059,-0.74579 0.994389,0.27345 1.690462,1.09382 2.088217,2.46111 0.372896,1.21813 0.571774,1.87691 0.596634,1.97635 0.149159,-0.0746 0.298317,-0.11187 0.447475,-0.11187 0.223738,0 0.410186,0.087 0.559344,0.26103 0.07458,0.0746 0.124299,0.14916 0.149159,0.22374 0.02486,0.0746 0.04972,0.16158 0.07458,0.26102 0.02486,0.0746 0.04972,0.17402 0.07458,0.29832 z"
         style="fill:none;stroke:#ffffff;stroke-width:0.932239"
         id="path22"
         sodipodi:nodetypes="sccccccccccccccscccccccssccscccccsccccccccscsccscccccccccccccccsccccscccccccccccccscccccccccccscscsc" />
      <path
         d="m 107.62574,134.62852 c -0.1243,-1.14355 -0.21131,-2.0385 -0.26103,-2.68485 -0.17402,0.1243 -0.36047,0.16159 -0.55935,0.11187 -0.12429,-0.0249 -0.2113,-0.087 -0.26102,-0.18645 l -0.0746,-0.14916 c -0.0249,-0.0746 -0.0497,-0.16159 -0.0746,-0.26103 -0.0497,-0.22373 -0.11188,-0.52205 -0.18645,-0.89495 -0.0994,-0.74579 -0.19888,-1.61588 -0.29832,-2.61027 -0.0994,-1.09383 -0.16158,-2.05093 -0.18644,-2.8713 0,-0.99439 0.0746,-1.67803 0.22373,-2.05093 0.27346,-0.69607 0.59664,-1.28027 0.96953,-1.75261 0.67121,-0.82037 1.62831,-1.1684 2.8713,-1.04411 0.19888,0.0249 0.52206,0.0746 0.96953,0.14916 0.44747,0.0746 0.73336,0.11187 0.85766,0.11187 0.14916,0 0.43505,-0.0249 0.85766,-0.0746 0.19888,-0.0249 1.01925,-0.23617 2.46112,-0.63392 1.46672,-0.42261 2.6227,-0.65878 3.46793,-0.7085 2.01364,-0.14916 3.71653,0.17402 5.10867,0.96953 1.61589,0.91981 2.49841,2.36167 2.64757,4.32559 0.0994,0.57177 0.0994,1.2057 0,1.90177 -0.0746,0.69607 -0.31075,1.31757 -0.70851,1.86448 -0.29831,0.42261 -0.5842,0.69607 -0.85766,0.82037 -0.32317,0.14916 -0.63392,0.11187 -0.93224,-0.11187 -0.0746,-0.0746 -0.14916,-0.16159 -0.22373,-0.26103 l -0.0746,0.18645 c -0.32318,0.79551 -0.70851,1.56617 -1.15598,2.31196 -0.22374,0.39775 -1.31757,1.72775 -3.28149,3.98998 l -1.75261,2.05093 -0.41018,0.52206 v 0.0373 c 0.47233,0.27345 0.73336,0.43504 0.78308,0.48476 0.94467,0.77065 1.60345,1.25542 1.97635,1.4543 0.27345,0.14915 0.87009,0.41018 1.7899,0.78308 l 2.64756,1.04411 c 1.06897,0.44747 1.9142,0.85766 2.53569,1.23055 0.89495,0.4972 1.44187,0.98197 1.64075,1.4543 0.24859,0.54691 0.27346,1.05654 0.0746,1.52887 -0.0994,0.22374 -0.3356,0.54692 -0.7085,0.96953 l -0.11187,0.11187 c -0.0497,0.2486 -0.17403,0.45991 -0.37289,0.63392 l -0.0746,0.0746 c 0,0.0249 -0.0124,0.0497 -0.0373,0.0746 l -0.0746,0.0746 c -0.0249,0.0497 -0.0746,0.11188 -0.14916,0.18645 -0.32317,0.37289 -0.68364,0.62149 -1.0814,0.74579 -0.42261,0.1243 -0.93224,0.0994 -1.52887,-0.0746 -0.39775,-0.1243 -0.87009,-0.32318 -1.41701,-0.59663 -0.62149,-0.29832 -1.34242,-0.69608 -2.16279,-1.19327 -0.57177,-0.29831 -1.21813,-0.67121 -1.93906,-1.11869 l -2.53569,-1.71532 c -1.01925,-0.69607 -1.66561,-1.11869 -1.93906,-1.26785 l -0.18645,-0.11186 c 0,0.0249 0.0249,0.3729 0.0746,1.0441 0.0497,0.67121 0.087,1.2057 0.11187,1.60346 0.0497,0.94467 0.0746,1.69046 0.0746,2.23737 v 0.82037 c -0.0249,0.14916 -0.0373,0.27346 -0.0373,0.3729 -0.0497,0.27346 -0.14917,0.4972 -0.29832,0.67121 -0.34804,0.47234 -0.88252,0.69608 -1.60345,0.67122 -0.0994,0 -0.23617,-0.0249 -0.41019,-0.0746 h -0.18645 -0.26102 -0.33561 c -0.0994,0 -0.23617,-0.0124 -0.41019,-0.0373 -0.17401,0 -0.32317,-0.0249 -0.44747,-0.0746 -0.0994,-0.0249 -0.23617,-0.0622 -0.41019,-0.11187 -0.17401,-0.0497 -0.32317,-0.12431 -0.44747,-0.22374 -0.1243,-0.0746 -0.26103,-0.17402 -0.41019,-0.29831 -0.1243,-0.0994 -0.2486,-0.23617 -0.37289,-0.41019 -0.1243,-0.17402 -0.22374,-0.36047 -0.29832,-0.55934 -0.0994,-0.2486 -0.18645,-0.63393 -0.26103,-1.15598 -0.0497,-0.34804 -0.087,-0.85767 -0.11187,-1.52888 -0.0497,-1.14355 -0.087,-2.52326 -0.11187,-4.13914 -0.0249,-0.69607 -0.0497,-1.85205 -0.0746,-3.46793 -0.0249,-1.61589 -0.0373,-2.67243 -0.0373,-3.16962 z m 4.81035,0.26103 c 0.0746,-0.0746 0.17402,-0.16159 0.29832,-0.26103 0.52205,-0.49719 1.18084,-1.24299 1.97635,-2.23738 1.49159,-1.9142 2.48598,-3.3312 2.98317,-4.25101 0.0497,-0.0746 0.11188,-0.13673 0.18645,-0.18645 -0.0746,-0.32317 -0.0373,-0.73336 0.11186,-1.23056 0.14916,-0.54691 0.22374,-0.88252 0.22374,-1.00681 v -0.11187 c -0.0497,0.0249 -0.11188,0.0497 -0.18645,0.0746 -0.39775,0.12429 -0.91981,0.29831 -1.56616,0.52205 -1.36729,0.47233 -2.17523,0.78308 -2.42382,0.93224 -0.0994,0.0746 -0.16159,0.14916 -0.18645,0.22374 -0.1243,0.49719 -0.2486,0.85766 -0.3729,1.0814 -0.14916,0.22373 -0.26103,0.37289 -0.3356,0.44747 -0.22374,0.27346 -0.47234,0.41019 -0.7458,0.41019 0.0497,0.74579 0.0622,1.98877 0.0373,3.72896 z m -3.61709,-4.51204 c 0.17402,0.79551 0.38533,1.37971 0.63393,1.75261 0.0497,0.0746 0.087,0.1243 0.11186,0.14915 l 0.0746,0.0746 c 0.0994,-0.0249 0.21131,-0.11187 0.33561,-0.26102 0.0746,-0.0994 0.14916,-0.36047 0.22374,-0.78308 0.0497,-0.3729 0.0995,-0.91982 0.14916,-1.64075 0.0497,-0.91981 0.0746,-1.46672 0.0746,-1.64074 0.0249,-0.27346 0.0622,-0.48477 0.11186,-0.63392 0.0249,-0.1243 0.0622,-0.23617 0.11187,-0.33561 0.1243,-0.19888 0.27346,-0.33561 0.44748,-0.41018 0.47233,-0.22374 0.88252,-0.16159 1.23055,0.18644 l 0.11187,0.11187 c 0.1243,-0.44747 0.41019,-0.80794 0.85766,-1.0814 0.32318,-0.19887 1.21813,-0.55934 2.68486,-1.08139 0.64635,-0.22374 1.19327,-0.39776 1.64074,-0.52206 0.24859,-0.0746 0.44747,-0.13673 0.59663,-0.18645 h 0.29832 c 0.22373,-0.0249 0.42261,0.0249 0.59663,0.14916 0.44747,0.39775 0.64635,0.93224 0.59664,1.60345 0,0.19888 -0.087,0.6215 -0.26103,1.26785 -0.0994,0.32318 -0.13673,0.52206 -0.11187,0.59663 h 0.14916 l 0.11187,0.0373 c 0.42261,0.0746 0.90738,-0.13673 1.45429,-0.63392 l 0.3729,-0.41019 0.29831,-0.29831 c 0.3729,-0.34804 0.73337,-0.52206 1.0814,-0.52206 0.42262,0.0249 0.72094,0.22375 0.89495,0.59664 0.0994,0.22373 0.13673,0.49719 0.11187,0.82037 -0.0249,0.0497 -0.0373,0.11188 -0.0373,0.18645 0.0994,0.42261 0.22374,0.69607 0.3729,0.82037 0.0249,0.0249 0.0746,0.0249 0.14916,0 0.14915,-0.0746 0.3356,-0.27346 0.55934,-0.59664 0.49719,-0.69607 0.68364,-1.77746 0.55934,-3.24419 -0.12429,-1.71532 -0.88251,-2.97074 -2.27466,-3.76625 -1.21813,-0.69607 -2.77186,-0.98196 -4.6612,-0.85766 -0.82037,0.0497 -1.9142,0.27347 -3.28149,0.67121 -1.39214,0.3729 -2.2498,0.59664 -2.57298,0.67121 -0.49719,0.0249 -0.8328,0.0497 -1.00682,0.0746 -0.14916,0 -0.47234,-0.0373 -0.96953,-0.11187 -0.49719,-0.0746 -0.80794,-0.12429 -0.93224,-0.14915 -0.96953,-0.0994 -1.70289,0.14916 -2.20008,0.74579 -0.34804,0.42261 -0.64636,0.9571 -0.89495,1.60345 -0.0994,0.27346 -0.14916,0.85766 -0.14916,1.75261 0.0249,0.79551 0.087,1.74018 0.18645,2.83401 0.0497,0.64635 0.12431,1.29271 0.22373,1.93906 0.0497,-0.29831 0.14917,-0.52205 0.29832,-0.67121 0.0994,-0.14916 0.22374,-0.22374 0.3729,-0.22374 0.17401,-0.0249 0.3356,0.0124 0.48476,0.11187 0.14916,0.0746 0.28589,0.23617 0.41019,0.48476 0.0746,0.14916 0.14916,0.31075 0.22373,0.48477 0.0497,0.0994 0.0994,0.21131 0.14916,0.33561 z"
         style="fill:none;stroke:#ffffff;stroke-width:0.932239"
         id="path24"
         sodipodi:nodetypes="cccsccccccccsscccccccccccccccccccccccccccsccccccccccscscccccccsccsccscsccsccccccccscccccccccccssccccccccscccccccccccccccccccccccsccccscccccccccsccc" />
      <path
         d="m 131.75205,132.39114 c 0,-0.19887 0.0746,-0.37289 0.22374,-0.52205 0.14915,-0.14916 0.32317,-0.22374 0.52205,-0.22374 0.19888,0 0.3729,0.0746 0.52206,0.22374 0.14915,0.14916 0.22373,0.32318 0.22373,0.52205 0,0.29832 0.0497,0.63393 0.14916,1.00682 0.10623,0.54791 0.20649,0.56801 0.41019,0.85766 0.14915,0.19888 0.29831,0.31075 0.44747,0.33561 0.14916,0.0497 0.36047,-0.0124 0.63393,-0.18645 0.49719,-0.37289 0.8328,-1.11868 1.00681,-2.23737 l 0.11187,-0.78309 c 0.0249,-0.29831 0.0373,-0.4599 0.0373,-0.48476 0.0249,-0.22374 0.0622,-0.39776 0.11187,-0.52205 0.0249,-0.1243 0.0746,-0.23617 0.14916,-0.33561 0.17402,-0.22374 0.39776,-0.33561 0.67121,-0.33561 0.1243,0 0.23617,0.0249 0.33561,0.0746 v -0.14916 c 0.0746,-0.96953 0.16159,-1.75261 0.26103,-2.34924 0.0497,-0.3729 0.11188,-0.65879 0.18644,-0.85766 0.0746,-0.29832 0.16159,-0.4972 0.26103,-0.59664 0.54691,-0.52205 1.31757,-0.55934 2.31196,-0.11186 0.29831,0.14915 0.68364,0.37289 1.15597,0.67121 0.62149,0.37289 1.00682,0.59663 1.15598,0.67121 0.84523,0.47233 1.46673,0.64635 1.86448,0.52206 0.57177,-0.17402 0.99439,-0.89495 1.26785,-2.1628 0.14916,-0.62149 0.17403,-1.28028 0.0746,-1.97635 -0.0994,-0.77065 -0.32318,-1.33 -0.67122,-1.67803 -0.27345,-0.2486 -0.75822,-0.39776 -1.45429,-0.44748 -0.59663,-0.0746 -1.37971,-0.0621 -2.34924,0.0373 -0.64635,0.0746 -1.46673,0.19888 -2.46112,0.3729 -1.09383,0.17402 -1.72775,0.27346 -1.90177,0.29831 -0.37289,0.0249 -0.65878,0.0373 -0.85766,0.0373 l -0.89495,-0.0746 c -0.42261,-0.0249 -0.72093,-0.0497 -0.89495,-0.0746 -0.96953,-0.0249 -1.6656,0.17401 -2.08822,0.59663 -0.29831,0.32317 -0.47233,0.59663 -0.52205,0.82037 -0.1243,0.59663 -0.18645,2.13794 -0.18645,4.62391 0,2.31195 0.18642,4.43747 0.18645,4.43746 z m -0.70849,0.33561 c -0.14916,-0.59663 -0.22374,-2.18766 -0.22374,-4.77307 0,-2.51083 0.0622,-4.10186 0.18645,-4.77307 0.0746,-0.37289 0.32318,-0.77065 0.74579,-1.19326 0.57177,-0.57178 1.45429,-0.83281 2.64756,-0.78309 0.22374,0 0.52206,0.0124 0.89495,0.0373 0.39775,0.0249 0.68364,0.0497 0.85766,0.0746 0.17402,0 0.43505,-0.0124 0.78308,-0.0373 l 1.86448,-0.29831 c 0.99439,-0.17402 1.8272,-0.29832 2.49841,-0.3729 0.99439,-0.0994 1.82719,-0.11187 2.4984,-0.0373 0.87009,0.0746 1.50402,0.29832 1.90177,0.67121 0.47233,0.44748 0.77065,1.15598 0.89495,2.12551 0.0994,0.77065 0.0746,1.50402 -0.0746,2.20009 -0.34803,1.5413 -0.94467,2.44868 -1.7899,2.72214 -0.62149,0.19887 -1.44186,0.0124 -2.46111,-0.55935 -0.14916,-0.0994 -0.53449,-0.3356 -1.15598,-0.7085 -0.47233,-0.29831 -0.84523,-0.50962 -1.11869,-0.63392 -0.67121,-0.29832 -1.15598,-0.31075 -1.45429,-0.0373 -0.0249,0.0746 -0.0497,0.16159 -0.0746,0.26103 -0.0497,0.17401 -0.0994,0.43504 -0.14916,0.78308 -0.0994,0.54691 -0.18645,1.30513 -0.26103,2.27466 -0.0994,1.26785 -0.17402,2.37411 -0.22374,3.31878 0.7108,-0.15833 1.34406,-0.23579 1.90178,-0.33562 0.89495,-0.17402 1.55374,-0.28589 1.97635,-0.33561 0.34804,-0.0497 0.6215,-0.087 0.82037,-0.11186 0.29832,0 0.53449,0.0249 0.70851,0.0746 0.47233,0.1243 0.85766,0.45991 1.15597,1.00682 0.22374,0.42262 0.3729,0.90739 0.44748,1.4543 0.0994,0.54691 0.0994,1.04411 0,1.49158 -0.0994,0.62149 -0.36047,1.04411 -0.78308,1.26785 -0.47234,0.27345 -0.96954,0.48476 -1.49159,0.63392 -0.52205,0.1243 -0.94467,0.19888 -1.26784,0.22374 -0.29832,0 -0.65879,-0.0124 -1.0814,-0.0373 -0.39776,-0.0497 -0.63393,-0.0746 -0.7085,-0.0746 -0.2486,0 -0.41019,0.0746 -0.48477,0.22374 -0.19888,0.37289 -0.32318,1.15597 -0.3729,2.34924 v 0.82037 0.0746 l 0.11187,-0.0373 c 0.0249,-0.0249 0.63393,-0.31075 1.82719,-0.85766 0.84523,-0.42261 1.52888,-0.7085 2.05093,-0.85766 0.89495,-0.24859 1.56617,-0.19887 2.01364,0.14916 0.89495,0.67121 1.36729,1.80233 1.41701,3.39335 0.0497,1.56617 -0.32316,2.72215 -1.11869,3.46794 -0.57177,0.52205 -1.62831,0.96953 -3.16962,1.34242 -1.49158,0.34804 -3.00802,0.54692 -4.54933,0.59664 -1.7899,0.0249 -3.2069,-0.18644 -4.25101,-0.63393 -1.46673,-0.64635 -2.11308,-1.6656 -1.93906,-3.05774 0.0249,-0.2486 0.0994,-0.47234 0.22373,-0.67122 0,-1.09383 0.0124,-2.78429 0.0373,-5.07138 0.0249,-2.2871 0.0373,-4.01485 0.0373,-5.18326 0.0384,-0.96968 0.0274,-0.78514 -0.2983,-1.56616 z"
         style="fill:none;stroke:#ffffff;stroke-width:0.932239"
         id="path26"
         sodipodi:nodetypes="csssscccccccccscccccccccccccccccccccscccscsccccccccccccccccccccccccccccccscccccccccccccccscc" />
    </g>
    <path
       style="fill:#ffffff;stroke:none;stroke-width:0.0667967px;stroke-linecap:butt;stroke-linejoin:miter;stroke-opacity:1"
       d="m 91.625409,158.29534 c 0,0 0.469669,-2.54746 2.280842,-2.77269 0.833828,-0.10369 1.602634,-0.23837 2.409768,1.13701 l -0.123832,0.59895 -0.334602,-0.11235 -0.249189,0.0428 -0.08461,0.22955 -0.0659,0.23535 -0.367152,-0.1318 -0.42093,-0.77511 -0.313373,-0.15688 -0.54246,0.37816 -0.417783,0.51617 -0.04707,0.0377 -0.442465,0.0377 -0.423636,1.4592 -0.329495,-0.73431 -0.225939,0.0565 -0.169455,0.34833 z"
       id="path44"
       sodipodi:nodetypes="cscccccccccccccccccc" />
    <path
       style="fill:#ffffff;stroke:none;stroke-width:0.0667967px;stroke-linecap:butt;stroke-linejoin:miter;stroke-opacity:1"
       d="m 86.577701,158.44099 0.145937,-0.84462 0.770424,-1.23926 0.750817,-0.50564 1.104205,-0.11755 0.687168,0.51403 0.389565,1.2119 -0.01037,0.85491 c 0,0 -0.239018,0.39311 -0.285699,0.40155 -0.04668,0.008 -0.606815,-0.0177 -0.65351,-0.0505 -0.04669,-0.0328 -0.294838,-0.55936 -0.294838,-0.61703 0,-0.0577 -0.275748,-1.04435 -0.275748,-1.04435 l -0.216525,-0.1318 -0.351864,0.4444 -0.250641,0.43112 -0.11297,0.37656 -0.122385,-0.14121 -0.131798,0.0377 -0.11297,0.68723 -0.0659,0.20711 -0.273011,0.0471 -0.395393,-0.41422 -0.348324,0.16945 z"
       id="path929" />
    <path
       style="fill:#ffffff;stroke:none;stroke-width:0.0667967px;stroke-linecap:butt;stroke-linejoin:miter;stroke-opacity:1"
       d="m 80.931886,158.15296 0.348207,-1.30212 0.737529,-0.83223 1.194499,-0.45457 0.981572,0.0806 0.681473,0.35949 0.475855,0.75984 0.297351,0.84296 -0.235354,0.12238 -0.376565,-0.27301 -0.517778,0.0471 -0.05648,0.0753 -0.43305,0.0282 0.02735,-0.41023 -0.187391,-0.22994 -0.131798,-0.13179 -0.338909,-0.0659 v 0 l -0.376566,-0.21652 -0.280862,0.21181 0.01727,0.29655 -0.04707,0.10356 -0.178869,-0.0753 -0.352116,-0.0243 -0.102387,0.2305 0.02145,1.33768 h -0.216526 l -0.338909,-0.31066 v 0 l -0.367152,0.28242 z"
       id="path931" />
    <path
       style="fill:#ffffff;stroke:none;stroke-width:0.0667967px;stroke-linecap:butt;stroke-linejoin:miter;stroke-opacity:1"
       d="m 99.637767,157.47514 -0.217884,-0.14873 -0.262238,0.2617 -0.103028,1.03668 -0.122916,0.21539 -0.166189,-0.33969 -0.238616,-0.48874 -0.318655,-0.006 -0.13679,-0.2209 0.112189,-1.59316 0.766891,-0.22312 0.480123,0.0659 1.812686,-0.3818 0.69666,-0.0665 0.90536,0.48361 0.25679,0.75542 -0.47068,0.9885 -0.12239,-0.25418 -0.10879,-0.27632 -0.34875,-0.0356 -0.2391,0.26488 -0.36716,0.16003 0.0282,-0.48012 -0.15063,-0.40481 -0.55122,0.0316 -0.68146,0.30596 z"
       id="path935"
       sodipodi:nodetypes="ccccccccccccccccccccccccccc" />
    <path
       style="fill:#ffffff;stroke:none;stroke-width:0.0667967px;stroke-linecap:butt;stroke-linejoin:miter;stroke-opacity:1"
       d="m 104.4148,158.47917 0.0736,-1.9996 0.68488,-0.27535 0.6684,0.0283 1.53221,-0.14854 0.51899,0.073 0.17068,0.6609 -0.1094,0.70732 -0.78509,0.14767 -0.61986,-0.47741 -0.51925,0.14792 -0.11297,0.80962 -0.19011,0.0505 -0.12997,0.2696 -0.12298,0.67133 -0.16886,0.21359 -0.16004,0.0471 -0.21653,-0.30126 -0.10676,-0.33001 -0.12336,-0.12135 -0.17199,0.0764 z"
       id="path937" />
  </g>
</svg>
